<?xml version="1.0" encoding="UTF-8" standalone="no"?>
<!-- Created with Inkscape (http://www.inkscape.org/) -->

<svg
   xmlns:dc="http://purl.org/dc/elements/1.1/"
   xmlns:cc="http://creativecommons.org/ns#"
   xmlns:rdf="http://www.w3.org/1999/02/22-rdf-syntax-ns#"
   xmlns:svg="http://www.w3.org/2000/svg"
   xmlns="http://www.w3.org/2000/svg"
   xmlns:xlink="http://www.w3.org/1999/xlink"
   xmlns:sodipodi="http://sodipodi.sourceforge.net/DTD/sodipodi-0.dtd"
   xmlns:inkscape="http://www.inkscape.org/namespaces/inkscape"
   width="122.25866mm"
   height="176.784mm"
   viewBox="0 0 122.25866 176.784"
   version="1.1"
   id="svg8"
   inkscape:version="0.92.3 (2405546, 2018-03-11)"
   sodipodi:docname="zogbo.svg">
  <defs
     id="defs2" />
  <sodipodi:namedview
     id="base"
     pagecolor="#ffffff"
     bordercolor="#666666"
     borderopacity="1.0"
     inkscape:pageopacity="0.0"
     inkscape:pageshadow="2"
     inkscape:zoom="3.959798"
     inkscape:cx="147.14781"
     inkscape:cy="357.98205"
     inkscape:document-units="mm"
     inkscape:current-layer="layer2"
     showgrid="false"
     fit-margin-top="0"
     fit-margin-left="0"
     fit-margin-right="0"
     fit-margin-bottom="0"
     inkscape:window-width="3840"
     inkscape:window-height="2131"
     inkscape:window-x="2560"
     inkscape:window-y="0"
     inkscape:window-maximized="1" />
  <metadata
     id="metadata5">
    <rdf:RDF>
      <cc:Work
         rdf:about="">
        <dc:format>image/svg+xml</dc:format>
        <dc:type
           rdf:resource="http://purl.org/dc/dcmitype/StillImage" />
        <dc:title></dc:title>
      </cc:Work>
    </rdf:RDF>
  </metadata>
  <g
     inkscape:label="orig"
     inkscape:groupmode="layer"
     id="layer1"
     transform="translate(-37.900436,-46.078239)"
     style="opacity:0.3358779">
    <image
       sodipodi:absref="/home/snordhoff/versioning/git/langsci/books/ACAL47/192a/figures/fig-zogbo-2.png"
       xlink:href="fig-zogbo-2.png"
       y="46.078239"
       x="37.900436"
       id="image137"
       preserveAspectRatio="none"
       height="176.784"
       width="122.25866" />
  </g>
  <g
     inkscape:groupmode="layer"
     id="layer2"
     inkscape:label="paus"
     transform="translate(-37.900436,-46.078239)"
     style="display:inline;opacity:1">
    <path
       style="opacity:1;vector-effect:none;fill:#dbfaeb;fill-opacity:1;fill-rule:evenodd;stroke:#000000;stroke-width:0.26458332px;stroke-linecap:butt;stroke-linejoin:miter;stroke-miterlimit:4;stroke-dasharray:none;stroke-dashoffset:0;stroke-opacity:1"
       d="m 117.11244,165.23224 c -1.18216,-0.42716 -2.49451,-0.31181 -3.74177,-0.46772 -1.24726,-0.15591 -1.63704,-1.36976 -1.67044,-1.50339 -0.0334,-0.13364 -0.33409,-0.55124 -0.53454,-1.01897 -0.20045,-0.46772 -1.10248,-2.6894 -1.10248,-3.02349 0,-0.33408 -0.20046,-1.90429 -0.16705,-2.40542 0.0334,-0.50113 0.30068,-2.77292 0.30068,-3.00678 0,-0.23386 -0.33409,-1.13591 -0.46772,-1.20272 -0.13363,-0.0668 -0.90204,-0.43431 -0.96885,-0.56794 -0.0668,-0.13364 -1.28652,-1.67503 -2.13816,-2.2718 -0.64546,-0.4523 -1.97111,-0.7684 -2.17156,-0.93544 -0.20045,-0.16704 -0.86863,-0.53454 -0.86863,-0.66817 0,-0.13364 0.3675,-1.1359 -0.16704,-0.93545 -0.53454,0.20045 -1.06908,0.40091 -1.60362,0.60136 -0.53454,0.20045 -2.706103,0.40091 -2.839737,0.43431 -0.133635,0.0334 -1.937705,0.74613 -2.372018,0.7684 -0.434313,0.0223 -0.868625,0.0445 -1.302938,0.0668 -0.434313,0.0223 -1.035667,0.96885 -1.102487,1.10249 -0.06682,0.13363 -1.202714,1.13589 -1.202714,1.26953 0,0.13363 -0.334087,1.40316 -0.334087,1.60362 0,0.20045 -0.501128,1.5702 -0.634764,1.80406 -1.948994,2.29454 -0.531463,1.80467 1.570209,2.13816 0.529744,0.19517 1.087879,0.30332 1.637025,0.43431 0.665021,0.15863 1.352704,0.22805 2.004523,0.43432 0.238593,0.0755 -0.238282,1.16496 -0.02669,1.29859 0.211588,0.13363 0.661458,0.23821 0.427596,0.40525 -0.396133,1.98957 1.341103,2.77522 2.672692,3.37428 0.55681,0.25613 0.20045,0.33408 0.13364,0.46772 -0.0668,0.13363 -1.014084,0.0632 -1.17,0.63506 -0.102901,0.37742 0.301373,2.00423 0.301373,2.13786 0,0.13364 0.456577,1.71498 0.601347,1.77066 0.14477,0.0557 0.27969,0.17922 0.43432,0.16704 0.50982,-0.0401 0.99241,-0.26198 1.50058,-0.31939 2.15636,-0.2436 4.31589,-0.4928 6.4841,-0.58264 0.91483,-0.0379 1.82476,0.16068 2.73951,0.20045 0.879,0.0382 1.77747,0.21055 2.63928,0.0334 1.17712,-0.24197 2.39568,-0.57203 3.37428,-1.26953 0.27053,-0.19282 0.0786,-0.85592 -0.23386,-0.96882 z"
       id="path144"
       inkscape:connector-curvature="0"
       sodipodi:nodetypes="ssssssssssssssssssssccsssccsssssssssss" />
    <path
       style="opacity:1;vector-effect:none;fill:#dbfaeb;fill-opacity:1;fill-rule:evenodd;stroke:#000000;stroke-width:0.26458332px;stroke-linecap:butt;stroke-linejoin:miter;stroke-miterlimit:4;stroke-dasharray:none;stroke-dashoffset:0;stroke-opacity:1"
       d="m 97.935854,159.05163 c -0.16277,0.13147 -0.24458,0.35995 -0.267271,0.56795 -0.04595,0.42126 -0.08254,0.87295 0.06682,1.26951 0.186182,0.49434 0.490596,0.97165 0.902036,1.30294 0.477379,0.38438 1.159207,0.43033 1.670431,0.7684 0.20095,0.13289 0.16762,0.66157 0.4009,0.60137 0.34724,-0.0896 0.49528,-0.53825 0.63477,-0.86862 0.28919,-0.68492 0.34117,-1.45512 0.63476,-2.13816 0.25642,-0.59657 0.66818,-1.11362 1.00227,-1.67043 0.33409,-0.55681 -0.46773,-1.43658 -0.63477,-1.57021 -0.16704,-0.13364 -0.74613,-0.63477 -1.30294,-0.86863 -0.55681,-0.23386 -1.113619,-0.46772 -1.670429,-0.70158 -0.55681,-0.23386 -0.53454,1.13589 -0.601358,1.50339 -0.06682,0.3675 -0.03341,1.6259 -0.23386,1.67044 -0.200453,0.0445 -0.441614,0.005 -0.601359,0.13363 z"
       id="path146"
       inkscape:connector-curvature="0"
       sodipodi:nodetypes="sssssssssssssss" />
    <path
       style="fill:#f7fab8;fill-opacity:1;fill-rule:evenodd;stroke:#000000;stroke-width:0.26458332px;stroke-linecap:butt;stroke-linejoin:miter;stroke-opacity:1"
       d="m 95.296567,149.09582 c 0.423996,0.0967 0.868625,-0.0445 1.302938,-0.0668 0.434313,-0.0223 0.968853,-0.33408 1.135895,-0.33408 0.167045,0 1.9377,-0.42318 2.47224,-0.53454 0.53454,-0.11136 1.32678,0.13654 1.60362,-0.33409 0.20823,-0.35398 -0.62363,-0.53454 -0.93544,-0.80181 -0.31181,-0.26727 -0.935445,-0.73499 -1.002263,-1.23612 -0.06682,-0.50113 -0.367496,-1.80407 -0.334087,-2.07134 0.03341,-0.26727 0.1225,-1.40316 -0.167042,-1.70384 -0.289542,-0.30068 -0.579085,-0.60136 -0.868627,-0.90204 -0.289542,-0.30068 -0.03341,-0.36749 -0.434314,-0.13363 -0.400904,0.23386 -2.127018,1.09135 -2.271789,1.23612 -0.144771,0.14477 -0.247044,0.35156 -0.434314,0.43431 -0.311637,0.1377 -0.88611,-0.11984 -1.00226,0.20045 -0.322903,0.89043 -0.161702,1.89457 -0.100227,2.83975 0.02859,0.43962 0.302389,0.83381 0.367496,1.26952 0.08071,0.54013 -0.09608,1.11576 0.06682,1.63703 0.07783,0.24905 0.346961,0.44309 0.601354,0.50111 z"
       id="path148"
       inkscape:connector-curvature="0"
       sodipodi:nodetypes="ssssssssssssssssss" />
    <path
       style="fill:#dbfaeb;fill-opacity:1;fill-rule:evenodd;stroke:#000000;stroke-width:0.26458332px;stroke-linecap:butt;stroke-linejoin:miter;stroke-opacity:1"
       d="m 94.361124,142.84841 c 0.395877,0.38598 -0.247769,1.08447 -0.267271,1.63703 -0.01428,0.4045 0.08151,0.80711 0.167044,1.20272 0.0931,0.4306 0.302389,0.83381 0.367496,1.26952 0.08071,0.54013 -0.09608,1.11576 0.06682,1.63703 0.07783,0.24905 0.724422,0.27103 0.601356,0.50111 -0.50207,0.93865 -1.390386,1.61442 -2.138157,2.37204 -0.104954,0.10634 -0.267269,0.13363 -0.400904,0.20045 -0.133635,0.0668 -1.570209,-2.03793 -1.670434,-2.23838 -0.100226,-0.20045 -1.269531,-1.36976 -1.269531,-1.5368 0,-0.16705 -0.300678,-1.16931 -0.300678,-1.33635 v -1.57021 c 0,-0.20045 1.010725,-0.87722 0.501131,-1.63702 -4.764581,-7.10394 1.830675,-0.0622 2.739512,-0.16705 0.54242,-0.0626 1.212669,-0.71526 1.603616,-0.33409 z"
       id="path150"
       inkscape:connector-curvature="0"
       sodipodi:nodetypes="sssssssssssssss" />
    <path
       style="fill:none;fill-rule:evenodd;stroke:#000000;stroke-width:0.26458332px;stroke-linecap:butt;stroke-linejoin:miter;stroke-opacity:1"
       d="m 91.053327,170.27624 c 1.113519,0.0602 2.253757,-0.13635 3.307797,-0.50042 0.514915,-0.17786 0.93231,-0.6169 1.23612,-1.06908 0.202201,-0.30095 0.497806,-0.86162 0.200454,-1.06908 -0.447893,-0.31249 -1.091633,0.0951 -1.637027,0.0668 -0.318463,-0.0166 -0.61749,-0.22491 -0.935443,-0.20045 -0.428599,0.033 -0.881895,0.12397 -1.236122,0.3675 -0.391276,0.269 -0.8752,0.62841 -0.902034,1.10248 -0.01966,0.34735 0.810819,0.32039 0.801807,0.66818 -0.0091,0.34952 -1.184676,0.6152 -0.835552,0.63407 z"
       id="path152"
       inkscape:connector-curvature="0"
       sodipodi:nodetypes="ssssssssss" />
    <path
       style="fill:none;fill-rule:evenodd;stroke:#000000;stroke-width:0.26458332px;stroke-linecap:butt;stroke-linejoin:miter;stroke-opacity:1"
       d="m 91.087072,168.97399 c 0.267269,0.22273 0.810819,0.32039 0.801807,0.66818 -0.0091,0.34952 -0.51323,0.4986 -0.835552,0.63407 -1.227219,0.51579 -2.516565,0.8691 -3.774847,1.30365 -1.258282,0.43455 -0.133633,-0.3675 -0.133633,-0.63477 0,-0.26726 -0.157776,-1.01544 0.133633,-1.36975 0.369273,-0.44898 1.436571,-0.56794 1.670436,-0.50113 0.233857,0.0668 1.870887,-0.32298 2.138156,-0.10025 z"
       id="path154"
       inkscape:connector-curvature="0"
       sodipodi:nodetypes="ssssssss" />
    <path
       style="opacity:1;vector-effect:none;fill:#a3cfa9;fill-opacity:1;fill-rule:evenodd;stroke:#000000;stroke-width:0.26458332px;stroke-linecap:butt;stroke-linejoin:miter;stroke-miterlimit:4;stroke-dasharray:none;stroke-dashoffset:0;stroke-opacity:1"
       d="m 86.008951,157.28097 c 0.247814,-0.14554 0.467721,0.33409 0.701582,0.50113 0.233861,0.16704 0.100227,2.37202 0.100227,2.53906 0,0.16704 -0.360846,1.29728 -0.167045,1.9043 0.120131,0.37627 0.634768,0.7684 0.768401,0.90203 0.133638,0.13364 0.434313,0.83522 0.467722,1.20271 0.03341,0.3675 0.14477,0.93545 0.267269,1.40317 0.122499,0.46772 0.831572,1.26751 0.367496,1.40316 -0.848745,0.24809 -1.738546,-0.39277 -2.539061,-0.7684 -0.665687,-0.31236 -1.202713,-0.84635 -1.804069,-1.26953 -0.601356,-0.42318 -1.202715,-1.30294 -1.369756,-1.5702 -0.167046,-0.26727 -1.904296,-2.9511 -1.937705,-3.10701 -0.03341,-0.15591 -0.218374,-0.36065 -0.100227,-0.46772 0.314219,-0.28476 0.779537,-0.33409 1.169305,-0.50114 0.389768,-0.16705 1.169304,0.53454 1.403164,0.63477 0.233863,0.10023 0.868628,0.75727 0.968854,0.30068 0.100226,-0.45659 0.07591,-0.95989 0.300678,-1.36976 0.357922,-0.65268 0.761297,-1.36028 1.403165,-1.73725 z"
       id="path156"
       inkscape:connector-curvature="0"
       sodipodi:nodetypes="ssssssssssssssssss" />
    <path
       style="opacity:1;vector-effect:none;fill:#dbfaeb;fill-opacity:1;fill-rule:evenodd;stroke:#000000;stroke-width:0.26458332px;stroke-linecap:butt;stroke-linejoin:miter;stroke-miterlimit:4;stroke-dasharray:none;stroke-dashoffset:0;stroke-opacity:1"
       d="m 71.242309,133.99511 c -0.197934,0.48963 -0.445449,0.95772 -0.668173,1.43658 -0.222724,0.47886 0.668171,1.40316 0.801809,1.5368 0.133631,0.13363 0.428583,0.59229 0.534538,0.93544 0.164802,0.53373 0.133635,1.30294 0.133635,1.67044 0,0.24055 0.0398,0.10596 0.06305,0.48199 0.01227,0.19844 0.267505,1.03459 -0.02964,1.0548 -1.774434,0.12066 -1.824488,-0.14402 -2.104747,1.50339 -0.04234,0.2489 -0.334087,0.37863 -0.501131,0.56795 -0.167044,0.18932 -0.734991,1.03567 -0.801809,1.36976 -0.06682,0.33409 -0.05568,0.66817 -0.400905,0.90203 -0.345223,0.23386 -0.690446,0.46773 -1.035669,0.70159 -0.345223,0.23386 1.70384,1.00226 1.837478,1.06907 0.133634,0.0668 1.26118,3.48287 1.461632,3.44946 0.200452,-0.0334 0.580508,-3.15919 0.709933,-3.31582 0.142026,-0.17193 -0.141013,-0.52922 0.03341,-0.66817 0.557257,-0.44392 1.292934,-0.59894 1.937705,-0.90204 0.658177,-0.3094 2.613899,-0.41312 3.274051,-0.71828 0.410293,-0.57628 0.810422,-0.98446 1.002261,-2.18828 0,-0.13363 -0.260111,-1.50997 -0.334086,-2.27179 -0.04526,-0.46606 -0.06682,-1.23612 -0.06682,-1.40316 0,-0.16705 0.167041,-1.67044 0.300678,-1.70385 0.133634,-0.0334 1.280668,-1.31407 0.835218,-1.60361 -0.44545,-0.28954 -0.846596,-0.66271 -1.33635,-0.86863 -0.505528,-0.21255 -1.061655,-0.28373 -1.603616,-0.36749 -0.685533,-0.10595 -1.390711,-0.0666 -2.071338,-0.20046 -0.684475,-0.13465 -1.325776,-0.44029 -2.004523,-0.60135 -0.04467,-0.0106 0.05062,0.0911 0.03341,0.13363 z"
       id="path158"
       inkscape:connector-curvature="0"
       sodipodi:nodetypes="cssssssssssssssssccsssssssssc" />
    <path
       style="fill:none;fill-rule:evenodd;stroke:#000000;stroke-width:0.26458332px;stroke-linecap:butt;stroke-linejoin:miter;stroke-opacity:1"
       d="m 85.173733,172.91624 c -0.378632,-0.31182 -0.690919,-0.72908 -1.135896,-0.93545 -0.355894,-0.16505 -0.783267,-0.20348 -1.169302,-0.13363 -0.807425,0.14611 -1.597059,0.41714 -2.33861,0.7684 -0.335156,0.15876 -0.556812,0.48999 -0.835218,0.73499 -0.278406,0.245 -0.634765,0.70158 -0.634765,0.83522 0,0.13363 -0.06132,0.42435 0.03341,0.60135 0.131368,0.24546 0.467723,0.50113 0.668174,0.50113 0.200453,0 0.05568,0.47886 0.601358,0.30068 0.545675,-0.17818 1.125791,-0.27349 1.637025,-0.53454 0.547648,-0.27965 0.982239,-0.74269 1.503391,-1.06907 0.583031,-0.36513 1.202713,-0.66818 1.804069,-1.00227"
       id="path160"
       inkscape:connector-curvature="0"
       sodipodi:nodetypes="cssssssssssc" />
    <path
       style="opacity:1;vector-effect:none;fill:#a3cfa9;fill-opacity:1;fill-rule:evenodd;stroke:#000000;stroke-width:0.26458332px;stroke-linecap:butt;stroke-linejoin:miter;stroke-miterlimit:4;stroke-dasharray:none;stroke-dashoffset:0;stroke-opacity:1"
       d="m 87.27848,171.57989 c 0.26489,-0.61342 0,-2.00452 0,-2.00452 v 0 c 0,0 1.180273,-0.028 1.403165,-0.46772 0.298109,-0.58816 -0.167042,-1.97112 -0.167042,-1.97112 v 0 c 0,0 -1.738546,-0.39277 -2.539061,-0.7684 -0.665687,-0.31236 -1.202713,-0.84635 -1.804069,-1.26953 -0.601356,-0.42318 -0.501134,-1.1693 -0.634765,-1.33634 -0.133638,-0.16705 -2.639287,-3.18496 -2.672696,-3.34087 -0.03341,-0.15591 -0.06682,-0.31181 -0.100227,-0.46772 -0.03341,-0.15591 -0.07017,-2.65858 -0.07017,-2.79221 0,-0.13364 -0.831857,-0.54867 -0.965496,-0.61548 -0.133629,-0.0668 -1.603616,-0.53454 -1.937703,-0.83522 -0.334087,-0.30068 -0.172265,-1.0243 -0.627644,-1.27428 -0.436573,-0.23965 -1.844596,-0.26251 -2.045052,-0.1957 -0.200448,0.0668 -0.701583,0.83522 -0.701583,1.03567 0,0.20045 -0.334085,1.9377 -0.501128,2.17156 -0.167044,0.23386 -0.567947,1.40317 -0.768401,1.73726 -0.20045,0.33408 -0.913172,1.05793 -1.269531,1.30293 -0.356359,0.245 -0.795231,0.4003 -1.069078,0.735 -0.250117,0.3057 -0.289543,0.73499 -0.434314,1.10248 -0.144771,0.36749 1.269531,1.5368 1.469983,1.77066 0.200452,0.23386 0.835218,1.03567 0.968854,1.36976 0.133633,0.33408 0.434312,1.06908 0.567946,1.46998 0.133638,0.40091 0.668174,1.67044 0.801809,2.07134 0.133634,0.4009 0.701587,1.73725 0.768401,2.00452 0.06681,0.26727 0.05983,0.86711 0.367495,1.10249 0.31007,0.23722 0.935446,-0.0334 1.169303,0.0668 0.233865,0.10021 1.187598,0.49637 1.77066,0.7684 0.157963,0.0737 0.773146,0.78126 0.940192,0.84807 0.167041,0.0668 0.785924,-1.09307 1.3316,-1.18216 0.545676,-0.0891 1.092962,-0.16882 1.637027,-0.26727 0.625389,-0.11317 1.246382,-0.48546 1.870885,-0.3675 0.481979,0.091 0.662493,0.80707 1.135896,0.93545 0.298053,0.0808 0.574509,-0.23538 0.835218,-0.40091 0.443757,-0.28175 1.061143,-0.45285 1.269529,-0.93542 z"
       id="path162"
       inkscape:connector-curvature="0"
       sodipodi:nodetypes="sssssssssssssssssssssssssssssssssssss" />
    <path
       style="opacity:1;vector-effect:none;fill:#dbfaeb;fill-opacity:1;fill-rule:evenodd;stroke:#000000;stroke-width:0.26458332px;stroke-linecap:butt;stroke-linejoin:miter;stroke-miterlimit:4;stroke-dasharray:none;stroke-dashoffset:0;stroke-opacity:1"
       d="m 61.571185,180.29261 c 2.737971,-0.36087 5.398015,-1.20164 8.031993,-2.03162 0.667172,-0.21023 1.127027,-0.90089 1.806176,-1.06844 1.170902,-0.28886 2.420586,-0.0571 3.608136,-0.26727 1.340701,-0.23729 2.621341,-0.73886 3.942228,-1.06908 0.461915,-0.11548 1.344109,0.20518 1.403165,-0.26727 0.06208,-0.49665 -0.972628,-0.39887 -1.269532,-0.80181 -0.219593,-0.29802 0.01955,-0.76548 -0.133633,-1.10248 -0.140155,-0.30834 -0.429831,-0.53285 -0.701585,-0.73501 -0.646911,-0.48124 -1.324959,-0.92641 -2.037929,-1.30292 -0.286763,-0.15143 -0.623629,-0.17818 -0.935443,-0.26727 -0.311814,-0.0891 -1.30294,-2.47225 -1.336349,-2.70611 -0.03341,-0.23386 -1.069077,-2.63928 -1.23612,-2.90655 -0.167044,-0.26727 -0.968848,-1.43658 -1.302938,-1.97112 -0.334087,-0.53453 -0.589844,-1.06934 -1.035672,-1.46998 -0.511679,-0.45981 -1.703843,-0.80181 -1.804069,-1.00226 -0.100225,-0.20045 -0.957714,-1.12476 -1.536798,-1.06908 -0.579084,0.0557 -1.158168,0.11137 -1.737252,0.16705 -0.579084,0.0557 -0.968852,0.90203 -1.002261,1.1693 -0.03341,0.26727 -1.002261,0.56795 -1.002261,1.00226 0,0.43431 1.536801,2.33861 1.603618,2.47224 0.06682,0.13364 -0.668175,1.00227 -0.968853,1.70385 -0.300678,0.70158 0.561471,1.02966 -0.08676,1.61732 -0.648227,0.58765 -1.450039,0.95515 -1.450039,1.22242 0,0.26727 0.03341,1.40316 -0.100226,1.80407 -0.133634,0.4009 -1.33635,1.67043 -1.26953,2.00452 0.06682,0.33408 0.434313,1.57021 0.567947,1.80407 0.133635,0.23386 0.501131,1.33634 0.367496,1.9377 -0.133635,0.60136 -0.495793,1.85094 -0.467722,2.17157 0.02807,0.32063 -0.234887,1.00396 0.08421,0.9619 z"
       id="path164"
       inkscape:connector-curvature="0"
       sodipodi:nodetypes="ssssssssssssssssssssssssssssss" />
    <path
       style="opacity:1;vector-effect:none;fill:#dbfaeb;fill-opacity:1;fill-rule:evenodd;stroke:#000000;stroke-width:0.26458332px;stroke-linecap:butt;stroke-linejoin:miter;stroke-miterlimit:4;stroke-dasharray:none;stroke-dashoffset:0;stroke-opacity:1"
       d="m 63.758763,155.34327 c 0.133633,0.13363 0.127532,0.2864 0.127532,1.37308 0,1.08668 0.346026,2.637 0.377976,3.07105 0.03195,0.43405 -0.306511,1.13624 0.09585,1.30216 0.527777,0.21764 1.058717,-0.43108 1.603619,-0.60136 0.348181,-0.10881 0.711611,-0.30657 1.069078,-0.23386 0.360288,0.0733 0.595482,0.43178 0.902033,0.63477 0.517726,0.34282 1.03519,0.68711 1.57021,1.00226 0.278924,0.1643 0.580575,0.58203 0.868624,0.43431 0.351461,-0.18024 0.136259,-0.8433 0.434314,-1.10248 0.77248,-0.67172 1.759525,-1.04681 2.639287,-1.57021 0.879762,-0.5234 1.002257,-2.53906 1.069078,-2.6727 0.06682,-0.13363 0.233859,-1.67043 0.267269,-1.83748 0.03341,-0.16704 0.392014,-0.76124 0.200454,-1.06907 -0.262669,-0.4221 -1.30294,-0.36751 -1.436574,-0.40091 -0.133635,-0.0334 -1.622435,-0.59351 -2.472246,-0.63476 -0.50656,-0.0246 -1.069076,0.0334 -1.503388,0.23386 -0.434312,0.20045 -2.82856,0.5408 -4.167736,0.86027 -0.431662,0.10298 -1.144247,0.0418 -1.177656,0.2088 -0.03341,0.16705 -0.46772,1.00227 -0.467721,1.00227 z"
       id="path166"
       inkscape:connector-curvature="0"
       sodipodi:nodetypes="sssssssssssssssssssss" />
    <path
       style="fill:#a3cfa9;fill-opacity:1;fill-rule:evenodd;stroke:#000000;stroke-width:0.26458332px;stroke-linecap:butt;stroke-linejoin:miter;stroke-opacity:1"
       d="m 71.242309,147.35859 c -0.09114,0.63798 -0.202189,1.27348 -0.334087,1.9043 -0.124378,0.59485 -0.313912,1.17499 -0.434313,1.77066 -0.09142,0.4523 -0.180113,0.90875 -0.200451,1.36975 -0.01333,0.30224 -0.156321,0.7417 0.100224,0.90204 0.506175,0.31636 1.180442,0.17818 1.770663,0.26727 0.590221,0.0891 1.570207,0.36749 1.703843,0.36749 0.133633,0 0.757975,0.0834 1.135898,0.13364 0.301311,0.04 0.701575,0.0668 0.902031,0.13363 0.200449,0.0668 0.983921,0.0398 1.336347,0.33409 0.290743,0.24281 0.167045,0.80181 0.467722,1.03567 0.300678,0.23386 1.336349,0.7684 1.469983,0.86862 0.133638,0.10023 0.56795,0.26727 0.868627,0.46772 0.300681,0.20046 0.645901,-0.16704 0.668174,0.63477 0.02227,0.80181 0.06682,2.40543 0.06682,2.40543 v 0 c 0,0 1.837478,0.10022 2.138159,0.10022 0.300677,0 1.057941,1.12476 1.403164,0.33409 0.345223,-0.79067 0.450481,-1.73807 1.035669,-2.37202 0.314174,-0.34036 1.013922,0.0627 1.369756,-0.23386 0.463004,-0.38584 0.556812,-1.06908 0.835218,-1.60362 0.278406,-0.53454 0.768395,-0.20044 0.968852,-0.13363 0.200448,0.0668 0.935442,0.46772 1.035669,0.73499 0.100227,0.26727 1.870887,-0.73501 1.870887,-0.73501 0,0 -0.400905,0.73497 0,0 0.400905,-0.73497 1.670434,-3.10699 1.670434,-3.30744 0,-0.20046 -0.328267,-1.4403 -0.768401,-2.00452 -0.476968,-0.61144 -1.211063,-0.85192 -1.378106,-1.62032 -0.167044,-0.7684 -1.082253,-1.58982 -1.194363,-2.55577 -0.08345,-0.71903 -0.133632,-1.87089 0,-2.17156 0.133636,-0.30068 1.024535,0.0528 0.200454,-1.06073 -0.824081,-1.11362 -0.721071,-2.36923 -1.545152,-3.48285 -0.94336,-0.96601 -0.861216,-2.19173 -1.929352,-3.0402 -0.367495,-0.26727 -1.20768,-0.67372 -1.937704,-1.3781 -1.446955,-0.0909 -1.2444,-2.11867 -1.971115,-2.23004 -0.67931,-0.0668 -1.402696,0.0494 -2.037929,-0.20045 -0.417771,-0.16429 -0.630207,-0.63967 -0.935442,-0.96885 -0.262847,-0.28346 -0.419378,-0.70243 -0.768401,-0.86863 -0.404184,-0.19247 -0.890898,-0.0891 -1.336347,-0.13363 -0.445449,-0.0445 -0.167041,0.60136 0.03341,0.93544 0.200454,0.33409 1.202711,1.50339 1.202711,1.73725 0,0.23386 -0.282463,1.48366 -0.501128,2.20498 -0.117599,0.38793 -0.467723,0.90203 -0.434314,1.13589 0.03341,0.23386 -0.527674,1.28921 -0.634764,1.97112 -0.08293,0.52806 0.06682,0.90202 2e-6,1.60361 -0.06682,0.70159 0.267262,2.13816 -0.06682,2.83974 -0.334086,0.70159 -0.05568,1.46999 -0.868627,1.63703 -0.812945,0.16704 -1.649387,0.24509 -2.438834,0.50113 -0.867982,0.28151 -1.757182,0.58053 -2.505649,1.10249 -0.182916,0.12756 -0.0019,0.44741 -0.03342,0.66817 z"
       id="path168"
       inkscape:connector-curvature="0"
       sodipodi:nodetypes="cssssssssssssssssssssssssssssssccccsssssssssssssssc" />
    <path
       style="opacity:1;vector-effect:none;fill:#a3cfa9;fill-opacity:1;fill-rule:evenodd;stroke:#000000;stroke-width:0.26458332px;stroke-linecap:butt;stroke-linejoin:miter;stroke-miterlimit:4;stroke-dasharray:none;stroke-dashoffset:0;stroke-opacity:1"
       d="m 95.19634,169.57537 c 0.50633,0.21993 1.080166,-0.22853 1.621123,-0.33856 0.77313,-0.15725 1.582832,-0.18501 2.321102,-0.46325 0.408544,-0.15397 0.690443,-0.53455 1.035665,-0.80183 0.34522,-0.26728 -0.36749,-0.8686 -0.467715,-1.20269 -0.100226,-0.33409 -0.423178,-2.47224 -0.167045,-2.80633 0.256133,-0.33409 0.95949,-0.62717 0.7684,-1.00228 -0.27821,-0.54612 -1.113621,-0.51227 -1.670431,-0.7684 -0.885213,-0.65533 -0.881559,-0.91646 -0.902039,-1.30294 -0.06682,-1.26951 -0.501128,-1.63701 -0.501128,-1.83746 v -1.16932 c 0,-0.38977 -1.069077,-0.40089 -1.369759,-0.4343 -0.300677,-0.0334 -1.236118,-0.0668 -1.403165,-0.16704 -0.16704,-0.10023 -1.436572,-0.61249 -1.971111,-0.63476 -0.991182,0.0381 -2.21076,-0.29821 -3.040192,0.10024 0.147668,-0.0287 -0.348826,-1.24842 -1.904288,-0.56795 -0.600222,0.0546 -0.556816,1.06908 -0.835224,1.60362 -0.278408,0.53454 -0.23386,1.10249 -0.23386,1.50339 0,0.4009 -0.233861,1.40316 -0.03341,2.17157 0.06682,0.25613 0.133634,0.51227 0.200451,0.7684 0.06682,0.25613 0.367495,0.86862 0.467723,1.00226 0.100223,0.13363 0.668172,1.26953 0.734991,1.43657 0.06682,0.16704 0.267269,0.43431 0.400905,1.10249 0.133633,0.66817 0.06682,0.33407 0.267269,1.36975 0.200449,1.03567 -0.333749,1.54216 0.167042,1.97112 0.364562,0.31227 1.269531,-0.10023 1.436573,-0.10023 0.167045,0 0.06683,1.06906 0.968854,-0.0334 0.902041,-1.10247 1.826342,-1.5368 2.138156,-1.46998 0.311814,0.0668 0.61698,0.1839 0.935443,0.20045 1.919664,0.38354 1.768242,-0.83918 1.436573,1.00228 -0.09452,0.30455 -0.693382,0.74154 -0.400903,0.86858 z"
       id="path170"
       inkscape:connector-curvature="0"
       sodipodi:nodetypes="sssssssccsssscccssssssssssssccs" />
    <path
       style="opacity:1;vector-effect:none;fill:#dbfaeb;fill-opacity:1;fill-rule:evenodd;stroke:#000000;stroke-width:0.26458332px;stroke-linecap:butt;stroke-linejoin:miter;stroke-miterlimit:4;stroke-dasharray:none;stroke-dashoffset:0;stroke-opacity:1"
       d="m 63.758763,155.34327 c 1.185301,-3.14463 5.905376,0.55257 6.614919,-2.03793 -0.03341,-0.30068 -0.06682,-0.60136 -0.100224,-0.90204 -0.03341,-0.30068 0.167041,-3.27405 0.267269,-4.10927 0.100226,-0.83521 0.01067,-1.08608 -0.334087,-1.43657 -0.386385,-0.39281 -1.135895,-0.3341 -1.603618,-0.40091 -0.467719,-0.0668 -1.523708,0.14071 -1.369756,-0.30067 0.125053,-0.35852 1.038246,-0.50311 1.336347,-0.91874 0.304146,-0.42406 0.846146,-1.86802 1.403167,-2.62259 0.307669,-0.41678 0.567948,-1.26952 0.668174,-1.40316 0.100225,-0.13364 1.403165,0.66816 1.436573,-0.10023 0.03341,-0.7684 0.167041,-2.37202 -0.167044,-3.20723 -0.334088,-0.83522 -0.80181,-1.1359 -1.069078,-1.80407 -0.267269,-0.66817 -0.334086,-1.67043 -0.367496,-2.17157 -0.03341,-0.50112 -0.580115,-1.29134 -0.868625,-1.9377 -0.134115,-0.30046 0.300678,-0.86863 -0.400904,-0.90203 -0.701583,-0.0334 -1.542071,-0.87146 -2.477629,-0.86545 -0.598657,0.004 -1.99551,0.8548 -2.065955,0.73181 -0.746967,-1.30412 -1.851092,-0.10401 -1.603616,1.00226 0.05259,0.23511 -1.982249,1.03567 -2.138156,1.03567 h -0.467722 c -0.155907,0 -0.534539,-0.70158 -0.668174,-0.70158 -0.133634,0 -1.369756,0.26727 -1.536799,0.50113 -0.167044,0.23386 -0.630886,0.63287 -1.165425,0.45469 -0.534539,-0.17818 -1.039549,0.35826 -1.574088,0.18008 -0.534539,-0.17818 -1.302936,0.43431 -1.570208,0.73499 -0.267267,0.30067 -0.734992,0.36749 -1.03567,0.93544 -0.300678,0.56795 -0.334089,0.73499 -0.634765,1.40316 -0.30068,0.66818 -0.434313,1.33635 -1.002261,1.9043 -0.567948,0.56795 -1.570208,0.90203 -1.77066,1.26953 -0.200453,0.3675 0.200452,0.4009 -0.400905,1.03567 -0.601356,0.63477 -1.403163,1.03567 -1.670434,0.93544 -0.267268,-0.10022 -0.467723,-0.70158 -1.102487,-0.56795 -0.634766,0.13364 -0.434313,0.23387 -1.336348,0.40091 -0.902034,0.16704 -1.806724,0.24463 -1.743728,0.7801 0.063,0.53547 0.125992,1.07093 0.188988,1.6064 0.063,0.53547 0.05135,0.88756 0.151575,0.95437 0.100222,0.0668 1.469985,-0.30068 1.837478,-0.13364 0.367498,0.16705 0.598543,-0.0829 1.318238,0.92741 0.719691,1.0103 1.287642,1.07712 1.888997,1.37779 0.601358,0.30068 1.536799,0.60137 2.171564,0.63477 0.634766,0.0334 0.80181,-0.23386 2.104748,0.0334 1.30294,0.26727 1.130601,0.22963 1.971113,0.36749 0.840514,0.13787 0.131808,-1.04331 0.840513,0.13787 0.708705,1.18118 0.662878,1.43234 0.930147,2.46801 0.26727,1.03567 0.296961,1.70511 0.770742,2.39844 0.161406,0.2362 0.103249,0.0909 0.665832,0.54153 0.562597,0.45065 1.837476,1.1693 2.03793,1.26953 0.20045,0.10022 0.818515,0.10022 1.186008,0.53453 0.367498,0.43432 1.554414,0.36682 1.653731,0.50113 0.561167,0.75886 1.198116,0.076 0.801809,-0.53453 0,0 -2e-6,1e-5 0,1e-5 z"
       id="path172"
       inkscape:connector-curvature="0"
       sodipodi:nodetypes="ccsssssssssssssssssssssssssssssssssssssssssssssssssc" />
    <path
       style="opacity:1;vector-effect:none;fill:#f7e284;fill-opacity:1;fill-rule:evenodd;stroke:#000000;stroke-width:0.26458332px;stroke-linecap:butt;stroke-linejoin:miter;stroke-miterlimit:4;stroke-dasharray:none;stroke-dashoffset:0;stroke-opacity:1"
       d="m 45.250348,141.41184 c 10e-7,-2e-5 1.737251,0.13364 1.937704,0.16705 0.200451,0.0334 0.734994,0.53453 1.102487,0.16704 0.367498,-0.3675 0.668171,-1.1693 1.135895,-1.57021 0.467719,-0.4009 1.837477,-0.33409 1.937704,-0.90204 0.100225,-0.56794 0.467722,-1.03566 0.467722,-1.60361 0,-0.56795 -0.06682,-0.7684 0.367496,-1.36976 0.434314,-0.60136 1.135897,-1.50339 1.469982,-1.87088 0.334089,-0.3675 0.50113,-1.06908 1.169304,-1.03567 0.668174,0.0334 0.742924,-0.23687 1.778593,-0.17006 1.035669,0.0668 1.829546,-0.33107 2.063407,-0.4313 0.23386,-0.10023 1.302938,0.20045 1.77066,0.20045 0.467722,0 0.768399,-0.16704 1.336348,-0.26727 0.567946,-0.10022 1.737252,-0.60135 1.737252,-0.73499 0,-0.13363 -0.100226,-1.50339 -0.100226,-1.97111 0,-0.46772 -0.167041,-1.67044 0,-1.97111 0.167046,-0.30068 0.753284,-1.25275 0.935442,-1.40317 0.308167,-0.25447 1.2218,-1.30437 -0.133634,-1.5368 -0.329284,-0.0565 -0.23386,-2.03793 -0.267269,-2.43883 -0.03341,-0.40091 -0.256133,-1.5034 -0.734991,-1.70385 l -1.436574,-0.60135 c -0.478858,-0.20045 -1.00226,-0.60136 -1.5368,-0.50113 -0.534538,0.10022 -1.482014,0.99249 -2.238382,0.7684 -0.311848,-0.0924 -0.467725,-0.63477 -0.601357,-0.7684 -0.133637,-0.13364 -1.536799,-0.63477 -1.26953,-1.16931 0.26727,-0.53454 -0.23386,-1.91543 -0.367495,-2.17156 -0.133635,-0.25613 -0.141633,-0.64096 -0.400905,-0.7684 -0.473539,-0.23276 -1.046805,-0.13363 -1.570208,-0.20045 -0.523403,-0.0668 -1.069078,0.16704 -1.069078,0.46772 0,0.30067 -0.868626,1.50339 -0.868626,2.07133 -0.08076,1.79996 -0.669729,3.45862 -1.002261,4.94449 -0.354265,0.26332 0.127256,0.48774 -0.734991,1.03567 -1.462587,-0.43942 -1.561176,-0.38542 -2.967164,-0.71273 -0.419831,-0.15515 -1.309147,-0.72384 -1.342557,-0.0222 -0.03341,0.70158 -0.133635,0.83522 -0.133635,1.67043 0,0.83522 -0.167044,1.50339 0.03341,2.20498 0.200451,0.70158 0.50113,1.70384 0.868626,2.73951 2.193522,3.21792 1.155131,2.40279 0.567947,5.24516 -0.06682,0.40091 0.379873,1.66332 -0.06682,2.47225 -0.446692,0.80893 -0.191795,-0.0526 -0.446691,0.80893 -0.254887,0.8615 -1.390788,2.93286 -1.390787,2.93284 z"
       id="path174"
       inkscape:connector-curvature="0"
       sodipodi:nodetypes="sssssssssssssssssssssssssssssccccsssccssss" />
    <path
       style="fill:none;fill-rule:evenodd;stroke:#000000;stroke-width:0.26458332px;stroke-linecap:butt;stroke-linejoin:miter;stroke-opacity:1"
       d="m 58.146102,113.11468 c 0.06682,0.1225 1.102487,0.56795 1.570209,0.56795 0.467722,0 1.162204,0.33382 1.503391,-0.0334 0.296011,-0.31859 0.06682,-1.00226 -0.06682,-1.30294 -0.133637,-0.30068 -0.577368,-0.8582 -1.03567,-1.00226 -0.333593,-0.10486 -0.935447,-0.0668 -1.035669,0.16704 -0.10023,0.23386 -0.334087,0.61249 -0.534539,0.7684 -0.200452,0.15591 -0.491467,0.23878 -0.601357,0.46772 -0.06038,0.12579 0.133637,0.24499 0.200455,0.36749 z"
       id="path176"
       inkscape:connector-curvature="0"
       sodipodi:nodetypes="sssssssss" />
    <path
       style="opacity:1;vector-effect:none;fill:#f7fab8;fill-opacity:1;fill-rule:evenodd;stroke:#000000;stroke-width:0.26458332px;stroke-linecap:butt;stroke-linejoin:miter;stroke-miterlimit:4;stroke-dasharray:none;stroke-dashoffset:0;stroke-opacity:1"
       d="m 60.651754,119.49574 c -0.06402,-0.32809 0.63226,-0.26476 0.868626,-0.50113 0.279628,-0.27963 0.44373,-0.65601 0.634765,-1.00226 0.321513,-0.65531 0.159849,-1.37964 0.668174,-2.03793 v -1.60362 c -0.103122,-1.02973 -0.431798,-2.06995 0.7684,-1.46998 0.256133,-0.078 0.467722,0.26727 0.768399,0.46772 0.300678,0.20045 0.801808,0.28398 1.169305,0.35079 0.367494,0.0668 0.696471,0.24957 1.035669,0.31737 0.369481,0.074 0.902035,-0.20046 1.069078,0.36749 0.167044,0.56795 0.06682,0.23386 0.267269,0.96885 0.200452,0.73499 0.334085,0.96885 0.434314,1.20272 0.100225,0.23386 0.267269,0.83521 0.267269,1.03567 0,0.20045 0.244999,0.91317 -0.133633,1.23612 l -1.135896,0.96885 c -0.378632,0.32295 10e-7,0.33409 0.23386,0.73499 0.233863,0.40091 0.341268,0.55857 0.434313,0.86863 0.08059,0.26857 0.200454,0.63476 0.100227,0.83521 -0.100227,0.20045 -0.133636,0.43432 -0.400905,0.93545 -0.267269,0.50113 -0.501133,0.80181 -0.801809,1.40316 -0.30068,0.60136 -0.601357,1.00226 -0.801809,1.26953 -0.200452,0.26727 -0.501129,0.50113 -0.801807,0.73499 -0.30068,0.23386 -0.701582,-0.50113 -0.701582,-0.66817 0,-0.16704 0.734993,-0.0668 -0.06682,-0.66817 -0.801807,-0.60136 -0.962906,-0.60913 -1.369757,-1.00227 -0.142583,-0.13778 -0.367495,0.0334 -0.367495,-0.46772 0,-0.50113 0.167043,-1.26953 0.200452,-1.43657 0.03341,-0.16704 0.712719,-1.16931 0.233861,-1.36976 -0.478858,-0.20045 -0.98585,-0.3438 -1.436574,-0.60135 -0.413848,-0.23648 -1.04461,-0.40078 -1.135894,-0.86861 z"
       id="path180"
       inkscape:connector-curvature="0"
       sodipodi:nodetypes="ssccccssssssssssssssssssssssss" />
    <path
       style="opacity:1;vector-effect:none;fill:#dbfaeb;fill-opacity:1;fill-rule:evenodd;stroke:#000000;stroke-width:0.26458332px;stroke-linecap:butt;stroke-linejoin:miter;stroke-miterlimit:4;stroke-dasharray:none;stroke-dashoffset:0;stroke-opacity:1"
       d="m 71.2089,133.86148 c -0.260319,0.071 -0.409936,0.75536 -0.589902,0.55432 -0.359488,-0.40159 -0.220486,-1.05518 -0.330729,-1.58277 -0.110243,-0.52759 -0.118115,-1.63003 -0.118115,-1.96075 0,-0.36223 0,-0.72446 0,-1.08669 0,-0.36223 0.25986,-1.13393 0.330729,-1.46465 0.07087,-0.33073 0.543341,-0.61421 0.661458,-1.32292 0.118116,-0.70871 0.937066,-1.42529 1.252046,-1.39379 0.31498,0.0315 0.629961,0.063 0.944941,0.0945 0.31498,0.0315 1.015809,1.2048 1.346538,1.74814 0.330729,0.54334 0.519721,0.85044 0.73233,1.06305 0.212614,0.21262 0.600206,0.3529 0.850447,0.59059 0.382577,0.36339 0.73603,0.58287 0.968563,1.25205 0.232533,0.66918 0.354356,0.96856 0.519719,1.39378 0.165366,0.42523 0.566961,1.06306 0.68508,1.63003 0.118117,0.56696 0.307107,1.37016 0.307107,1.46465 0,0.0945 -0.165583,0.94048 -0.544385,1.05839 -0.665075,0.20702 -1.581731,-0.9639 -1.84159,-0.98751 -0.259857,-0.0236 -1.441036,-0.23624 -1.771764,-0.33073 -0.33073,-0.0945 -1.000514,0.1413 -1.39795,-0.11834 -0.397436,-0.25964 -1.058666,-0.33472 -1.29513,-0.40138 -0.236464,-0.0667 -0.47237,-0.26461 -0.709393,-0.19997 z"
       id="path182"
       inkscape:connector-curvature="0"
       sodipodi:nodetypes="ssssssssssssssssssssss" />
    <path
       style="opacity:1;vector-effect:none;fill:#dbfaeb;fill-opacity:1;fill-rule:evenodd;stroke:#000000;stroke-width:0.26458332px;stroke-linecap:butt;stroke-linejoin:miter;stroke-miterlimit:4;stroke-dasharray:none;stroke-dashoffset:0;stroke-opacity:1"
       d="m 76.666619,129.38399 c -0.03158,0.33969 0.236235,0.87407 0.330729,0.96857 0.09449,0.0945 -0.01281,0.79775 0.492393,0.66918 1.201493,-0.0655 1.952014,0.41211 2.508735,1.51422 0.750999,0.77921 1.532679,0.66662 2.569383,0.65734 0.274061,0.0807 0.406238,-1.21072 0.35899,-1.32884 -0.04725,-0.11812 -0.283483,-0.85044 -0.283483,-1.67727 0,-0.82682 0.871276,-1.89636 0.896058,-2.03592 0.224428,-1.26388 -0.243361,-2.13148 -0.394478,-1.51764 -0.03388,0.13764 -0.265341,-0.2498 -0.666944,-0.20257 -0.401595,0.0472 -2.238469,0.48424 -3.236421,1.01581 -0.400516,0.21334 -0.944943,0.75595 -1.063058,0.85044 -0.11812,0.0945 -1.110309,0.42523 -1.204799,0.54334 -0.09449,0.11812 -0.287847,0.33619 -0.307105,0.54334 z"
       id="path184"
       inkscape:connector-curvature="0"
       sodipodi:nodetypes="sscccsssssssss" />
    <path
       style="opacity:1;vector-effect:none;fill:#dbfaeb;fill-opacity:1;fill-rule:evenodd;stroke:#000000;stroke-width:0.26458332px;stroke-linecap:butt;stroke-linejoin:miter;stroke-miterlimit:4;stroke-dasharray:none;stroke-dashoffset:0;stroke-opacity:1"
       d="m 69.366953,131.34475 c -0.14153,-0.008 -1.58278,-0.35435 -1.677268,-0.42523 -0.09451,-0.0709 -0.606336,-0.80319 -0.992187,-0.7087 -0.385851,0.0945 -0.778036,0.1661 -1.157552,0.28348 -0.385656,0.11927 -0.755953,0.28348 -1.13393,0.42522 -0.377977,0.14174 -0.637837,-0.11812 -0.779576,-0.35435 -0.141743,-0.23624 -0.54334,-1.67727 -0.54334,-1.86626 0,-0.18899 0.326722,-1.23557 0.732328,-1.70089 0.290171,-0.33289 0.850442,-0.73231 1.133928,-0.68508 0.283479,0.0472 1.000526,0.0897 1.079271,-0.39063 0.07874,-0.48034 0.424761,-0.87717 0.503506,-1.35751 0.07874,-0.48034 0.425223,-1.11031 0.425223,-1.2048 0,-0.0945 0.212613,-1.19693 0.566965,-1.53553 0.354352,-0.3386 0.708704,-0.67721 1.063056,-1.01581 0.354352,-0.3386 0.803192,-0.0709 1.110305,0.11812 0.307098,0.189 1.015811,0.75595 1.063059,1.15755 0.04725,0.4016 0.460796,0.63735 0.626166,0.84996 0.165367,0.21261 0.143276,0.3065 0.342397,0.59107 0.267796,0.38272 0.256472,0.60269 -0.366511,0.80725 -0.329953,0.10835 0.07779,0.57389 0.290401,0.7865 0.212612,0.21261 0.97381,0.0126 0.761193,0.48512 -0.212605,0.47247 -0.897694,1.48828 -0.992188,1.7009 -0.09449,0.21261 -1.071405,1.57207 -1.252045,2.48046 -0.06161,0.3098 0.07087,0.75596 0.07087,0.94495 0,0.22836 0.186842,0.55379 0,0.68508 -0.239168,0.16806 -0.582192,-0.0549 -0.874071,-0.0709 z"
       id="path186"
       inkscape:connector-curvature="0"
       sodipodi:nodetypes="csssssssssssssssssssssssssc" />
    <path
       style="opacity:1;vector-effect:none;fill:#f7fab8;fill-opacity:1;fill-rule:evenodd;stroke:#000000;stroke-width:0.26458332px;stroke-linecap:butt;stroke-linejoin:miter;stroke-miterlimit:4;stroke-dasharray:none;stroke-dashoffset:0;stroke-opacity:1"
       d="m 68.587377,120.80866 c 0.195237,-0.19712 -0.637837,0.14174 0,0 0.637836,-0.14174 1.272571,0.52955 1.406438,0.15943 0.133867,-0.3701 0.857619,-1.22046 0.902731,-1.61144 0.0289,-0.25045 -0.528592,-0.75659 -0.773641,-0.81585 -0.543725,-0.13149 -1.102344,0.19117 -1.653516,0.28675 -0.551172,0.0956 -0.590715,0.18572 -0.637964,0.42196 -0.04725,0.23623 -0.712382,0.10159 -0.497932,0.54689 0.21445,0.4453 0.472936,1.80074 0.668173,1.60362 z"
       id="path188"
       inkscape:connector-curvature="0"
       sodipodi:nodetypes="ssssssssss" />
    <path
       style="fill:#f7fab8;fill-opacity:1;fill-rule:evenodd;stroke:#000000;stroke-width:0.26458332px;stroke-linecap:butt;stroke-linejoin:miter;stroke-opacity:1"
       d="m 70.902481,119.32038 c -10e-6,1e-5 -0.354354,0.75595 -0.425222,0.85044 -0.07087,0.0945 -0.604219,0.67935 -0.46248,0.89196 0.14174,0.21261 0.864083,1.30503 0.958573,1.47039 0.09449,0.16537 0.649357,0.5903 0.755952,0.99219 0.0611,0.23036 0.377976,0.54335 -0.09449,0.70871 -0.47247,0.16536 -0.307105,0.51972 0.236235,0.94494 0.543341,0.42522 1.322921,0.0709 1.488282,0.51972 0.165368,0.44884 0.661458,0.7087 0.874069,1.03943 0.212611,0.33073 0.661463,0.56697 1.01581,1.03943 0.354358,0.47248 0.795327,1.35442 1.039436,1.32292 0.244109,-0.0315 0.499612,-0.0143 0.732327,-0.0945 0.48308,-0.1664 0.929192,-0.42523 1.393788,-0.63784 0.464596,-0.21261 0.07088,0.0236 0.448848,-0.44884 0.377983,-0.47246 1.252051,-0.33072 1.346538,-0.4016 0.09451,-0.0709 0.251987,-0.11024 0.708708,-0.25986 0.456721,-0.14962 0.905788,-0.32502 1.370163,-0.44885 0.364102,-0.0971 0.740203,-0.14174 1.110305,-0.21261 0.370102,-0.0709 0.165365,1.34654 0,1.67727 -0.165364,0.33073 -0.566965,0.63783 -0.637836,1.32292 -0.07087,0.68508 -0.307104,1.41741 -0.307104,1.79538 0,0.37798 -0.11348,0.41931 0,1.11031 0.113479,0.691 0.04725,0.75595 0.566962,1.55915 0.519716,0.8032 0.551734,0.80257 0.921319,1.1103 0.173393,0.14437 0.401594,0.0236 0.590587,0.33073 0.188985,0.30711 0.396497,0.55124 0.661458,0.75595 0.29261,0.22607 0.685083,0.30711 0.992188,0.4961 0.307104,0.18899 1.086681,0.63783 1.204798,1.01581 0.118118,0.37798 0.4016,1.06306 0.519719,1.44104 0.118117,0.37797 0.212612,0.54334 0.566962,1.34653 0.354355,0.8032 0.897694,1.84264 1.015812,1.98438 0.118118,0.14174 1.133929,0.59059 1.464657,0.68508 0.33073,0.0945 0.04397,0.28111 0.921319,0.11812 0.877348,-0.16299 1.938115,-0.63981 2.480963,-0.49708 0.542846,0.14273 0.423069,0.0789 1.00226,-0.20045 0.579191,-0.27933 1.159991,-0.55535 1.737572,-0.838 0.469246,-0.22963 0.882505,-0.74536 1.402845,-0.6988 2.567096,3.45663 -0.486947,5.70981 3.558116,6.43931 0.16536,0.0236 0.39516,-0.005 0.87407,-0.16536 0.47892,-0.16016 0.4016,-1.06306 0.4016,-1.65364 0.42351,-3.0698 -2.01102,-8.1489 -4.89006,-9.73289 -0.448849,-0.23624 -1.181174,-0.21261 -1.27567,-0.30711 -0.0945,-0.0945 -0.543345,-0.0945 -0.968565,-0.77957 -0.425228,-0.68509 -0.590586,-0.96857 -0.850445,-1.37017 -0.25986,-0.4016 -0.992188,-0.7087 -1.181177,-1.6064 -0.188986,-0.89769 -0.42522,-1.96075 -0.448847,-2.36235 -0.02363,-0.4016 -0.07087,-1.03943 -0.07087,-1.27567 0,-0.23623 -0.118118,-1.03943 -0.04725,-1.53552 0.07087,-0.4961 0.212613,-1.51191 0.330729,-1.65365 0.118117,-0.14174 0.905657,-0.27799 1.086684,-0.66146 0.19016,-0.40282 0.165366,-0.87407 -0.188989,-1.32292 -0.35435,-0.44884 -0.259857,1.03944 -0.590587,-0.94494 -0.330729,-1.98437 -0.425222,-2.44109 -0.992187,-2.26785 -0.566965,0.17324 -0.548697,0.63766 -1.133931,0.73233 -0.4975,0.0805 -1.007935,0 -1.511903,0 -0.503968,0 -0.850446,-0.70871 -1.346542,-0.25986 -0.496091,0.44884 -0.519716,0.8032 -0.850444,0.89769 -0.330731,0.0945 -1.393788,0.0945 -1.630024,0.0945 -0.236233,0 -1.29929,-0.47249 -1.913504,-0.51971 -0.61421,-0.0472 -1.086683,-0.0945 -1.535528,-0.25986 -0.448849,-0.16537 -0.732329,-0.42523 -1.771764,-0.56697 -1.039434,-0.14174 -1.960749,-0.25987 -2.149739,-0.28348 -0.188988,-0.0236 -0.661457,-0.0945 -1.535528,-0.14174 -0.874069,-0.0472 -1.748139,-0.0709 -2.220611,-0.0709 -0.472469,0 -1.724517,-0.0709 -2.244233,-0.0945 -0.519718,-0.0236 -0.755951,-0.0236 -1.181176,-0.0236 -0.425223,0 -1.322907,-0.0945 -1.322917,-0.0945 -1e-5,1e-5 -2.1e-5,1e-5 -3.1e-5,2e-5 z"
       id="path190"
       inkscape:connector-curvature="0"
       sodipodi:nodetypes="ssssssssssssssssssssssssssssssssssssccsccsssssssssssssssssssssssssss" />
    <path
       style="opacity:1;vector-effect:none;fill:#f7fab8;fill-opacity:1;fill-rule:evenodd;stroke:#000000;stroke-width:0.26458332px;stroke-linecap:butt;stroke-linejoin:miter;stroke-miterlimit:4;stroke-dasharray:none;stroke-dashoffset:0;stroke-opacity:1"
       d="m 89.588679,119.98184 c -10e-7,-1e-5 -10e-7,-0.8032 0.02363,-0.96857 0.02363,-0.16536 0.236236,-0.63783 0.236236,-0.82682 0,-0.18899 -0.283483,-0.73233 -0.330729,-0.82682 -0.04725,-0.0945 -0.212614,-0.68508 -0.212614,-0.8032 0,-0.11812 -0.259856,-0.33073 0.236236,-0.54334 0.496095,-0.21262 1.181175,-0.49611 1.582774,-0.51972 0.4016,-0.0236 0.685083,-0.11812 1.063059,-0.11812 0.377976,0 1.157552,-0.0236 1.27567,-0.0236 0.118118,0 0.236236,0 0.354354,0 0.118118,0 1.204796,-0.0236 1.133927,0.16537 -0.07087,0.18898 -0.354352,1.48828 -0.4016,1.67727 -0.04725,0.18899 -0.307105,0.54334 -0.188987,0.94494 0.118118,0.4016 0.354353,0.66146 0.543341,1.08668 0.188988,0.42522 0.259858,0.59059 0.519715,1.1103 0.259862,0.51972 0.708707,1.06306 0.826823,1.2048 0.118117,0.14174 0.118118,0.0709 0.118118,0.35436 0,0.28348 0,0.33072 -0.04725,0.63783 -0.04725,0.30711 -0.165364,0.63784 -0.68508,0.63784 -0.519718,0 -0.732329,0 -0.968565,-0.0945 -0.236236,-0.0945 -0.472474,-0.0709 -0.590587,-0.49609 -0.118123,-0.42523 -0.732362,-0.80319 -0.496094,-1.63003 0.236265,-0.82683 -0.09449,-1.01581 -0.307107,-1.01581 -0.212612,0 -0.79529,0.43766 -1.157523,0.70871 -0.178555,0.13361 0.0236,0.54334 -0.496123,0.44884 -0.519716,-0.0945 -0.259798,-0.23624 -1.015778,-0.44884 -0.755984,-0.21261 -1.015843,-0.66145 -1.015844,-0.66146 -10e-7,-1e-5 -10e-7,-1e-5 -2e-6,-2e-5 z"
       id="path192"
       inkscape:connector-curvature="0"
       sodipodi:nodetypes="ssssssssssssssssssssssssssss" />
    <path
       style="opacity:1;vector-effect:none;fill:#f7fab8;fill-opacity:1;fill-rule:evenodd;stroke:#000000;stroke-width:0.26458332px;stroke-linecap:butt;stroke-linejoin:miter;stroke-miterlimit:4;stroke-dasharray:none;stroke-dashoffset:0;stroke-opacity:1"
       d="m 73.288403,72.096985 c 0.771702,0.0315 1.549054,0.192883 2.315105,0.09449 0.969993,-0.124588 1.985714,-0.270749 2.834822,-0.755955 0.225517,-0.128867 -0.08618,-0.517427 -0.188989,-0.755952 -0.292729,-0.679131 -0.892681,-1.251568 -0.992188,-1.984376 -0.08532,-0.628319 0.126656,-1.311182 0.472522,-1.842633 0.336776,-0.517484 0.976406,-0.755953 1.464609,-1.133929 0.488203,-0.377976 0.850496,-0.09449 0.897745,0.566965 0.04725,0.661458 -0.04725,1.88988 -0.141743,2.598586 -0.09449,0.708705 -0.141738,1.937128 -0.188986,2.267857 -0.04725,0.330729 0.156314,0.411385 0.01457,1.072843 -0.141742,0.66146 -0.392552,1.478496 -0.534292,2.281696 -0.14174,0.803199 -0.139454,0.79762 -0.425222,1.039435 -0.382076,0.323311 -0.708706,0.04725 -1.464659,0.330729 -0.755953,0.28348 -1.181174,0.236232 -1.937129,0.519715 -0.755951,0.283482 -1.370163,0.18899 -1.700892,0.472472 -0.330729,0.283483 -0.897691,0.14174 -0.944941,0.661459 -0.04725,0.519715 -0.188987,1.133927 -0.188987,1.464656 0,0.330729 0.924306,0.489996 1.255035,0.584488 0.330729,0.09449 1.575609,0.158691 1.764599,0.253181 0.188989,0.09449 0.569013,-0.04831 0.569013,0.802135 0,0.850448 0.04987,1.2326 -0.280863,1.799562 -0.33073,0.566965 -0.709198,1.00185 -1.181669,1.238085 -0.47247,0.236234 -0.944941,0.188989 -1.653645,0.519718 -0.708705,0.33073 -1.228422,0.236235 -1.700893,0.425223 -0.47247,0.188988 -1.74814,0.283479 -2.031622,0.377976 -0.283483,0.0945 -0.61421,-0.519716 -0.803198,0.377976 -0.188988,0.897694 -0.04725,1.559151 -0.283482,1.606399 -0.236236,0.04725 -0.515596,0.162433 -0.755955,0.283482 -0.284813,0.143437 -0.377975,-0.14174 -0.803198,0.519719 -0.425222,0.661458 -0.61421,0.755952 -0.755951,1.133927 -0.141741,0.377977 -0.236234,0.755953 -0.377976,1.181177 -0.141741,0.425223 -0.129931,0.572868 -0.05316,1.051246 0.423781,0.702909 2.258264,2.34814 2.846634,1.94894 0.798797,-0.741749 2.392317,-0.374345 2.828916,0.543339 0.426691,0.896858 -1.370165,2.267857 -1.370165,2.645833 0,0.377978 -0.04725,0.519717 0.897694,1.13393 0.944941,0.614211 0.803201,0.75595 1.464659,0.803198 0.661458,0.04725 0.950016,-0.09161 1.275667,0.188989 0.286839,0.247154 0.283481,0.661459 0.330729,1.086681 0.04725,0.425225 0.425223,1.984383 0.472472,2.315113 0.04725,0.33072 -0.141753,-0.0473 0.14174,0.42522 0.283472,0.47248 0.236236,0.42522 0.850448,0.75595 0.614211,0.33073 2.258604,0.41137 3.401785,0.47247 0.503496,0.0269 0.94494,0.0473 1.511906,-0.0472 0.566962,-0.0945 1.27567,-0.47246 1.700892,-0.56696 0.425222,-0.0945 0.330727,0.23624 0.614212,-0.33073 0.28348,-0.56696 0.661458,-0.8032 0.661458,-1.13393 0,-0.33073 0.188992,0.0473 0,-0.99218 -0.188985,-1.039444 -3.844237,-2.067064 -0.637836,-2.256054 0.188662,-0.01112 -0.02362,-0.626022 0.826823,-0.106305 0.850446,0.519717 1.228422,0.472469 1.700892,1.181174 0.472471,0.708707 0.472469,0.566966 0.708708,1.039445 0.23623,0.47246 2.18517,0.57877 2.610396,0.20079 0.425222,-0.37797 0.885885,-0.34256 1.263858,-0.29529 0.377978,0.0473 0.377975,0.18899 0.661458,0.33073 0.283482,0.14174 0.566965,0.18899 0.897694,0.18899 0.330729,0 0.697625,-0.0677 0.850448,-0.33073 0.21598,-0.371669 0,-0.803206 -0.18899,-1.275675 -0.188989,-0.472469 -0.566965,-1.322917 -0.566965,-1.559153 0,-0.236236 -0.08335,-0.495708 0.0945,-0.566965 0.511676,-0.205004 0.992188,0.708709 1.322917,0.99219 0.330729,0.283481 0.850439,0.944941 0.944938,1.55915 0.0945,0.614213 1.330195,1.517353 1.063059,1.748143 -0.128908,0.11137 0.637837,0.56698 0.637836,0.56697 l -2e-6,-2e-5 c 0.141741,0.6457 0.283481,1.29139 0.425221,1.93709 0.14174,0.6457 0.99219,0.70871 1.228423,1.13393 0.236236,0.42523 0.472469,1.08668 0.472469,1.46466 0,0.37798 0.992189,0.44097 0.614212,0.8032 -0.377977,0.36223 -0.755953,0.72445 -1.13393,1.08668 -0.377977,0.36223 0.04725,0.8032 0.04725,1.22842 0,0.42523 0.236231,0.86226 0.330723,1.14574 0.0945,0.28349 1.763889,1.79935 2.173364,1.78358 0.409475,-0.0158 0.818944,-0.0315 1.228424,-0.0473 0.40948,-0.0158 0.4252,0.37798 0.47247,0.94494 0.0473,0.56697 0.14175,0.66146 -0.28348,1.22843 -0.42522,0.56696 -1.805798,0.89959 -2.787577,1.03943 -0.422128,0.0601 -0.897695,-0.0945 -1.27567,-0.0945 -0.377976,0 -0.708704,0.0945 -1.842633,0.14174 -1.133929,0.0472 -1.228426,-0.14177 -2.126117,-0.0473 -0.897698,0.0945 -1.700887,0.18901 -1.889882,0.23624 -0.188981,0.0472 -0.472458,0.0472 -0.850445,0.28348 -0.377965,0.23625 -0.330726,0.0945 -0.425222,0.47247 -0.0945,0.37797 0.519721,0.94489 0.188987,2.2206 -0.330725,1.27567 -0.850447,1.7009 -0.992188,1.98438 -0.141741,0.28348 0.472471,0.51972 -0.472469,0.66146 -0.944941,0.14174 -2.315105,0.0945 -2.55134,-0.14174 -0.236236,-0.23624 0.04725,-0.18899 -0.47247,-0.47247 -0.519718,-0.28348 -1.039435,-0.0236 -2.173362,-0.21261 -3.087113,-0.91405 -8.331586,-1.25678 -12.443337,-0.81014 0,0 0.726133,-0.41835 0.135517,-0.46555 -0.590619,-0.0472 -0.228436,-0.87514 -0.779608,-0.77956 -0.551172,0.0956 -1.102344,0.19117 -1.653516,0.28675 -0.551172,0.0956 0.803074,0.13848 0.09437,-1.75141 -0.708702,-1.88988 -0.5937,-2.31897 -0.944941,-2.50409 -1.844478,-0.9823 -1.150083,-0.36176 -2.256886,-0.86928 l -1.770209,-0.82195 c -0.577644,-0.26821 -0.130488,-0.75104 -0.7684,0.23386 -0.637913,0.9849 0.09732,0.58212 0.05008,1.76329 -0.04725,1.18118 -0.443367,2.0716 -0.718251,3.11438 -0.100801,0.38239 0.233861,0.50113 -0.634765,1.00226 -0.868626,0.50113 -1.752052,0.88056 -2.759442,1.60124 -1.906239,-0.16715 -2.4387,-1.21611 -2.505076,-1.82667 -0.141741,-1.32292 -0.08071,-1.56772 -0.481776,-2.24681 -0.146915,-0.24875 0.629867,-0.0117 -0.400905,-0.7684 -1.030768,-0.75669 -1.266995,0.75522 -1.03077,-0.75669 0.236224,-1.51191 0.284699,-1.47362 0.09448,-2.17337 -0.08365,-0.30772 0.330751,0.66145 -0.519706,-0.8032 -0.850457,-1.46465 -0.803212,-1.18117 -0.897705,-1.6064 -0.09449,-0.42522 -0.09449,0.0945 -0.283482,-1.5119 -0.18899,-1.6064 -0.157453,-1.28912 -0.188988,-1.93713 -0.01148,-0.23595 -0.236233,-0.56696 0,-0.7087 0.236237,-0.14175 1.083196,-0.16212 1.559159,0.0472 0.785002,0.34523 0.897682,2.36235 1.79538,1.84264 0.897702,-0.51972 3.071064,0.55122 3.212805,0.0945 l 0.425223,-1.37016 c 0.141741,-0.45672 0.472461,-0.75596 0.377969,-1.32292 -0.09449,-0.56696 0.04725,-0.75595 -0.850447,-1.74814 -0.897694,-0.99219 -0.944946,-1.03943 -1.511904,-1.88988 -0.566958,-0.85045 0.944946,0.23623 -0.566958,-0.85045 -1.511904,-1.08668 -2.598591,-0.66145 -2.504099,-1.133924 0.09449,-0.472471 0.299239,-1.795392 0.803207,-2.031627 l 1.511904,-0.708705 c 0.503968,-0.236235 0.992174,0.614217 1.181169,-0.944938 0.063,-0.519718 0.125997,-1.039437 0.188995,-1.559155 0.251289,-0.952434 0.559218,1.254626 -1.228423,-1.275667 -2.6525,-0.109452 -2.092448,-1.465793 -1.144408,-3.526332 0.5733,-1.246052 -0.74548,0.171797 -1.454185,-0.206178 -0.708706,-0.377975 -1.690971,-0.0014 -2.26785,-0.519719 -0.359356,-0.322894 -0.425229,-1.086678 -0.472477,-1.37016 -0.04725,-0.283483 -0.6142,-0.472472 -0.51971,-1.984378 0.0315,-0.503969 0.06299,-1.007937 0.09449,-1.511906 0.0315,-0.503969 0.09449,-1.417407 0.09449,-1.70089 0,-0.283482 -0.236387,-1.334792 -0.425219,-1.984377 -0.126577,-0.435426 -0.472474,-1.039432 -0.472474,-1.275668 0,-0.236236 0.566964,-1.228426 0.566964,-1.228426 0,0 -1.086682,0.992184 0,0 1.086682,-0.992184 1.181177,-0.897688 1.653646,-1.275664 0.472472,-0.377978 0.708707,-0.519718 1.181176,-0.944941 0.472471,-0.425224 0.283482,-0.377976 0.47247,-0.425225 0.188988,-0.04725 0.8032,-0.28348 1.559152,-0.519716 0.755952,-0.236236 1.700893,-0.708705 1.984375,-1.039434 0.811003,-0.668186 -0.238771,-2.191576 0.281515,-2.885427 0.31498,-0.409475 1.565087,-0.864584 2.080836,-0.894339 0.619609,-0.03575 0.894766,1.020856 1.511905,1.086685 0.713183,0.07607 1.354415,-0.472469 2.031622,-0.708704 0.677207,-0.236235 0.992185,-0.283483 1.08668,-0.0945 0.0945,0.18899 0.141743,0.236236 0.141743,1.086682 0,0.850447 0.850445,2.456845 0.850445,2.456845 v 0 c 0,0 1.542996,-0.113557 2.315104,-0.09449 0.507736,0.01254 1.007937,0.125997 1.511906,0.188995 0.503969,0.063 -0.566965,0.803193 -0.330729,1.133922 0.236236,0.330729 0.692975,0.755957 1.27567,0.755957 0.582695,0 1.278642,0.34519 1.748086,0 0.319477,-0.234917 -0.153572,-0.784801 -0.14174,-1.181174 0.01988,-0.665832 0.157489,-1.322917 0.236233,-1.984375"
       id="path196"
       inkscape:connector-curvature="0"
       sodipodi:nodetypes="csssssssssssssssssssssssssssssssccsssssssssssssssssssssssssssssssssssssssssssssssssssssssccssssccsssssccsssssssssssssssssssssccsssssssssssssssccsssssssssssssc" />
    <path
       style="opacity:1;vector-effect:none;fill:#f7fab8;fill-opacity:1;fill-rule:evenodd;stroke:#000000;stroke-width:0.26458332px;stroke-linecap:butt;stroke-linejoin:miter;stroke-miterlimit:4;stroke-dasharray:none;stroke-dashoffset:0;stroke-opacity:1"
       d="m 113.8264,85.184404 c -0.25199,-0.251984 -0.75595,0.614212 -0.75595,0.850445 0,0.236236 2.07887,1.464659 2.22061,1.842635 0.14174,0.377976 0.51972,1.464658 0.61421,1.653646 0.0945,0.188991 -0.42522,1.700892 -0.61421,2.504093 -0.18899,0.803198 -0.0473,2.456855 -0.33073,2.976563 -0.28346,0.519726 -0.42522,0.755951 -0.42522,1.511903 0,0.755951 1.00864,1.891099 1.93713,2.173364 0.48241,0.146655 1.13392,-0.566964 1.46465,-0.377976 0.33073,0.188988 0.8032,0.472467 1.22843,1.27567 0.42522,0.803203 3.66952,2.456843 3.96875,2.645833 0.29923,0.18899 0.55764,0.46887 0.89769,0.56696 0.50142,0.14464 1.03943,0.0945 1.55915,0.14175 0.51972,0.0472 0.7087,-1.27567 0.8032,-2.03163 0.0945,-0.75595 0.33073,-2.456845 0.56696,-2.929312 0.23624,-0.472474 1.32292,-2.078871 1.41742,-2.362353 0.0945,-0.28348 0.37797,-0.850447 0.0945,-1.55915 -0.28348,-0.708707 -1.27569,-1.795384 -1.32292,-2.031622 -0.0472,-0.236231 -0.37797,-1.370166 -0.47247,-2.078871 -0.0945,-0.708705 -0.56697,-1.937127 -0.8032,-2.882066 -0.23624,-0.94494 -0.42522,-1.559153 -0.42522,-1.842635 0,-0.283483 -0.18899,-2.55134 -0.18899,-2.787574 0,-0.236236 -4.20498,3.354536 -4.20498,3.354536 v 0 c 0,0 -2.55134,-1.070931 -3.82701,-1.606397 -1.27567,-0.535466 -1.27567,-0.897703 -1.08668,0.141738 0.18898,1.039436 -1.30716,1.858386 -1.55915,1.606402 -0.25199,-0.251984 -0.50398,-0.503968 -0.75597,-0.755952 z"
       id="path200"
       inkscape:connector-curvature="0"
       sodipodi:nodetypes="ssssssssssssssssssssssssssss" />
    <path
       style="fill:#f7e284;fill-opacity:1;fill-rule:evenodd;stroke:#000000;stroke-width:0.26458332px;stroke-linecap:butt;stroke-linejoin:miter;stroke-opacity:1"
       d="m 50.231916,106.58731 c 0,0 -0.283489,2.17336 -0.283489,2.45684 0,0.28348 -0.629953,1.71665 -0.04724,1.98438 0.582713,0.26773 1.125581,0.64939 1.74814,0.8032 0.73643,0.18194 1.887927,-0.46759 2.267857,0.18898 0.590109,1.01979 -0.07614,2.35521 -0.114215,3.53281 -0.03807,1.1776 -1.255962,0.62493 -1.350454,1.0974 -0.09449,0.47247 -0.04725,1.51191 -0.141741,1.93713 -0.09449,0.42522 -0.566965,1.03943 -0.803199,2.12611 -0.236237,1.08669 -0.850448,2.69309 -0.944941,2.83483 -0.09449,0.14174 -0.992187,0.37797 -1.228422,0.37797 -0.236235,0 -1.424771,-0.57961 -2.173363,-0.56696 -0.607833,0.0103 -1.606398,-0.0945 -1.74814,0.51972 -0.14174,0.61421 0.156812,2.20391 0.582036,3.99929 0.247161,1.04356 1.586524,2.53248 1.858053,4.03171 0.195621,1.08011 -0.637019,2.33026 -0.597451,2.64682 0.09449,0.75596 1.086682,0.61426 0.236235,2.26786 -0.283482,0.5512 -0.30041,1.36787 -0.850447,1.6536 -0.827526,0.42988 -1.889673,0.48802 -2.787574,0.23628 -0.90084,-0.25256 -1.511905,-1.10243 -2.267857,-1.65364 -0.755952,-0.55121 -2.504091,-0.42523 -2.551339,-0.61422 -0.04725,-0.18899 0.824793,-0.79501 0.897693,-1.32291 0.04088,-0.29601 -0.04725,-0.23624 -0.283482,-0.85045 -0.236234,-0.61421 -0.519717,-1.6064 -0.519717,-2.36235 0,-0.75595 -0.08309,-1.07774 -0.188988,-1.6064 -0.06756,-0.33726 -0.566967,-0.23623 -0.283483,-0.99219 0.283481,-0.75595 0.188988,-0.8032 1.133929,-1.74814 0.94494,-0.94494 1.181176,-0.80319 1.181176,-1.70089 0,-0.89769 0.188986,-1.27567 0.236235,-2.59859 0.04725,-1.32291 0.04725,-1.37016 0.04725,-1.98437 0,-0.61421 -0.661459,-1.5119 -0.472471,-2.03162 0.188989,-0.51972 1.559152,-1.84264 1.700893,-2.31511 0.141741,-0.47247 0.850445,-1.08668 1.27567,-1.6064 0.425221,-0.51971 1.039435,-1.5119 1.039435,-1.84263 v -1.18117 c 0,-0.56697 -0.188987,-0.61422 0,-1.46466 0.188989,-0.85045 0.409474,-2.3466 0.755952,-2.55134 0.346478,-0.20474 0.661216,-0.47668 1.039434,-0.61421 0.328632,-0.1195 0.692957,-0.0945 1.039435,-0.14174 0.346478,-0.0473 1.039436,0.47247 1.275669,0.7087 0.236238,0.23624 1.322924,-1.65364 1.322924,-1.65364"
       id="path206"
       inkscape:connector-curvature="0"
       sodipodi:nodetypes="csssssssssssssssssssssssssssssssssssssssc" />
    <path
       style="opacity:1;vector-effect:none;fill:#dbfaeb;fill-opacity:1;fill-rule:evenodd;stroke:#000000;stroke-width:0.26458332px;stroke-linecap:butt;stroke-linejoin:miter;stroke-miterlimit:4;stroke-dasharray:none;stroke-dashoffset:0;stroke-opacity:1"
       d="m 42.152668,144.05419 c -0.334007,0.007 -1.511906,0.8977 -1.417411,1.13393 0.0945,0.23624 1.322917,1.13393 1.559152,1.6064 0.236235,0.47247 0.717779,1.64031 1.417411,2.12612 0.677761,0.47062 1.984377,0.33073 2.409598,0.56696 0.425225,0.23624 1.60667,0.55992 2.362351,0.94494 0.447727,0.22811 -0.141739,-0.18898 1.27567,0.8032 1.417413,0.99219 1.984377,1.79539 2.22061,2.03162 0.236238,0.23624 1.181178,0.99219 1.511905,1.27567 0.330731,0.28349 1.039433,0.42523 1.086681,0.8977 0.04725,0.47247 0.377977,1.08668 0.519717,1.93712 0.141742,0.85045 0.803199,2.74033 0.992188,3.3073 0.188987,0.56696 0.425223,1.37016 0.661458,2.03162 0.236235,0.66146 0.330731,1.03943 0.283483,1.98437 -0.04725,0.94494 0.330728,2.26786 0.47247,2.83483 0.14174,0.56696 0.188989,0.89769 0.141741,1.98437 -0.04725,1.08668 -0.188989,4.39397 0,4.96094 0.188987,0.56696 0.28348,0.56696 0.188988,2.12611 -0.09449,1.55916 -0.283482,3.02381 -0.283482,3.54353 0,0.51972 1.748139,0.8032 2.031622,0.8032 0.283482,0 0.425223,0 0.708705,-0.33073 0.283482,-0.33073 1.053852,-0.72306 1.191447,-1.29268 -1.255893,-1.80606 0.169447,-3.16103 0.241769,-3.95363 0,-0.33073 -0.566962,-0.94494 -0.09449,-2.03162 0.472472,-1.08668 0.208066,-0.89383 0.397054,-1.3663 0.188989,-0.47247 0.252448,-1.67658 0.39419,-2.10181 0.14174,-0.42522 1.118699,-1.23178 1.449428,-2.03498 0.330729,-0.8032 0.677044,-1.7354 1.031329,-2.70929 0.08201,-0.22543 -1.10535,-0.40139 -0.869118,-1.34633 0.236234,-0.94494 0.480933,-1.60168 0.322991,-2.69719 -0.157942,-1.09551 -0.354601,-2.18613 -0.473826,-3.28653 -0.03902,-0.36012 0,-0.72445 0,-1.08668 0,-0.36223 -0.183252,-1.2604 -2.167627,-2.01635 -1.984375,-0.75595 -2.142718,-0.0718 -3.076793,-0.67673 -0.441801,-0.28612 -0.661457,0.0472 -1.228422,-0.9922 -0.566956,-1.03938 -0.755949,-3.29153 -0.992184,-3.68526 -0.236235,-0.39373 -0.47247,-0.78745 -0.708705,-1.18118 -0.236235,-0.39373 -1.842634,-0.61415 -2.693081,-0.85039 -0.850446,-0.23624 -3.118298,-0.70873 -3.307291,-0.75595 -0.188983,-0.0472 -2.803324,-0.48827 -2.976563,-0.94499 -0.173239,-0.45672 -0.08786,-1.1419 -0.519717,-1.37017 -0.82901,-0.43819 -2.787574,-0.37797 -2.787574,-0.37797 v 0 c 0,0 -0.8459,0.18004 -1.275674,0.18903 z"
       id="path208"
       inkscape:connector-curvature="0"
       sodipodi:nodetypes="sssssssssssssssssssssccsssssssssssssssssssss" />
    <path
       style="opacity:1;vector-effect:none;fill:#f7fab8;fill-opacity:1;fill-rule:evenodd;stroke:#000000;stroke-width:0.26458332px;stroke-linecap:butt;stroke-linejoin:miter;stroke-miterlimit:4;stroke-dasharray:none;stroke-dashoffset:0;stroke-opacity:1"
       d="m 120.29924,118.30457 c -0.15174,0.85527 0.66146,1.60639 0.99219,2.40959 0.33073,0.8032 -0.18898,0.14175 0.18899,0.51972 0.37798,0.37798 0.66146,0.47247 1.32292,0.66146 0.66146,0.18899 0.98467,0.28293 1.32291,0 0.47865,-0.40038 0.42523,-0.99219 0.33073,-1.84263 -0.0945,-0.85045 -0.51969,-2.78758 -0.56696,-3.07106 -0.0473,-0.28348 0.18899,-1.93713 -0.66146,-0.8032 -0.85045,1.13393 -0.91344,1.43316 -1.41741,1.6064 -0.50397,0.17324 -1.41881,-0.005 -1.51191,0.51972 z"
       id="path202"
       inkscape:connector-curvature="0"
       sodipodi:nodetypes="ssssssssss" />
    <path
       style="opacity:1;fill:#acddff;fill-opacity:1;fill-rule:evenodd;stroke:#000000;stroke-width:0.26458332px;stroke-linecap:butt;stroke-linejoin:miter;stroke-opacity:1"
       d="m 94.431498,118.35181 c 0.141743,0.51972 0.661457,1.41741 0.897696,1.88989 1.776038,1.99155 1.264406,1.0504 -0.307107,2.97656 -0.283485,0.37798 0.327645,0.68371 3.3e-5,1.22841 -0.367606,0.53442 -0.937927,0.30421 -1.154426,0.79149 -0.905697,2.03847 -0.296935,4.54957 0.495876,7.34665 0.106251,0.37486 0.617375,0.52541 0.989247,0.79156 0,0.42522 0.377973,0.85044 0.425222,1.13393 0.04725,0.28348 -0.614211,0.37797 0.47247,0.85044 1.086683,0.47247 1.181176,0.47247 1.795388,0.66146 0.614212,0.18899 0.188987,-0.8032 0.850445,0.18899 0.661458,0.99219 1.417408,2.3151 1.559148,2.69308 0.14175,0.37798 0.37798,0.56696 0.61422,0.99219 0.23623,0.42522 -0.23624,0.0945 0.61421,0.8032 0.85044,0.7087 0.89769,0.37797 0.99219,0.85044 0.0945,0.47247 0.23623,1.32292 0.33072,2.12612 0.0945,0.8032 0.42523,1.65364 0.51972,1.98437 0.0945,0.33073 -0.97929,1.14434 -0.11167,1.56436 0.1987,0.0962 0.073,0.94295 0.38032,1.1715 3.03615,1.92258 2.5371,-0.13191 4.26707,3.78423 0.28349,0.75596 1.18117,0.85045 1.37016,1.27567 0.18899,0.42523 0.47247,0.94494 0.56696,1.41741 0.0945,0.47247 0,0.18899 0,1.41741 v 3.92151 c 0,1.30717 0.8032,1.13392 1.13393,1.98437 0.33073,0.85045 0.32955,1.83333 1.27567,2.22061 0.95864,0.39241 3.50569,0.27404 4.70345,0.81458 0.30281,0.13665 -1.11269,1.33481 0.23386,0.96882 1.34654,-0.36599 2.29149,0.012 4.13412,0.0592 1.84263,0.0472 5.6224,-0.33073 5.76414,-0.14174 0.14174,0.18898 6.37835,0.75595 6.89806,0.89769 0.51972,0.14174 2.69308,0.0472 3.44904,0.23623 0.75595,0.18901 4.47015,0.30466 6.70907,0.33073 1.213,0.0141 3.35454,-0.18899 3.63802,-0.0945 0.28349,0.0945 0.95033,0.41959 1.27567,0.14174 0.51552,-0.44027 0.0945,-1.37016 0.0945,-2.03162 0,-0.66146 0.85036,-0.7087 0.56692,-2.03162 -0.28344,-1.32292 0.42528,-2.64583 -0.61417,-3.2128 -1.03945,-0.56697 -2.07889,-1.13393 -3.11834,-1.7009 -1.03945,-0.56697 1.0394,1.60639 0,0 -1.0394,-1.60639 -1.8426,-2.78757 -1.93709,-4.06324 -0.0945,-1.27567 -0.61421,-3.68527 -0.75595,-4.15774 -0.14174,-0.47247 -0.23625,-0.94494 -1.08669,-2.88206 -0.85045,-1.93713 -1.37016,-2.59859 -1.46465,-3.2128 -0.0945,-0.61421 -0.33071,-0.94494 -0.37798,-1.88988 -0.0473,-0.94495 -0.18902,-2.69309 -0.0473,-3.40179 0.14172,-0.70871 -0.0472,-1.22843 0.47247,-2.12612 0.5197,-0.8977 1.08669,-2.36235 1.41741,-2.88206 0.33073,-0.51972 0.89774,-0.51972 0.85045,-1.51191 -0.0473,-0.99219 1.93715,-2.12611 1.98438,-2.45684 0.0472,-0.33073 0.51972,-2.45685 0.75595,-3.30729 0.23624,-0.85045 0.18899,-0.85045 0.66146,-2.22062 0.47247,-1.37016 0.70871,-3.49628 1.08668,-4.34672 0.37798,-0.85045 0.66146,-1.51191 0.66146,-2.17337 v -1.55915 c 0,-0.51972 -0.0472,0.189 -0.8032,-0.42522 -0.75598,-0.6142 -1.93713,1.18118 -2.12612,1.37016 -0.18899,0.18899 -3e-5,1.9371 -1.13394,1.88988 -1.13392,-0.0472 -3.30728,0.75598 -3.63801,0.80321 -0.33073,0.0472 -2.47259,1.55919 -2.74033,0.85049 -0.26774,-0.7087 -0.53547,-1.41741 -0.80321,-2.12611 -0.26774,-0.7087 0.87408,-1.08674 -0.40159,-1.41747 -1.27567,-0.33073 -3.09473,-0.80315 -3.09473,-0.80315 0,0 3.35448,0.0945 0,0 -0.22041,-0.006 -0.13838,-0.4911 -0.36128,-0.57093 -0.50827,-0.18202 -1.31242,-0.0436 -1.71746,-0.0404 -2.12074,0.017 -3.16568,0.75302 -3.16568,0.75302 v 0 c -0.4667,-0.54012 -0.82792,-1.39234 -1.23146,-1.71918 -1.1546,-0.93516 -2.14639,-0.62524 -2.97586,-0.22466 -1.21036,0.58452 -2.24998,2.21554 -4.2026,2.55796 -1.22842,0.18899 -2.61952,0.76778 -3.96881,0.80325 -0.4297,0.0113 0.33079,-0.25991 0.0945,-0.49615 -0.60881,-4.19803 -5.67852,-1.98905 -9.80268,-2.76925 -0.60578,-0.1146 -0.9981,-0.0301 -1.53659,-0.34905 -0.4526,-0.28787 -0.18912,-0.54323 -1.41748,-0.59053 -1.22836,-0.0473 -1.22836,-0.89775 -1.84257,-0.23629 -0.61421,0.66145 -1.606393,0.99223 -2.504092,1.41741 -0.897695,0.42517 -3.945144,0.28345 -4.039622,0.66146 0.07362,1.09831 -0.695955,1.66167 -0.519668,2.55143 z"
       id="path204"
       inkscape:connector-curvature="0"
       sodipodi:nodetypes="ccccsscsssssssssssccssssssssssssssssssssssssssssssssssssssssssssssccsscscscsssccc" />
    <path
       style="opacity:1;fill:#007ec7;fill-opacity:1;fill-rule:evenodd;stroke:#000000;stroke-width:0.26458332px;stroke-linecap:butt;stroke-linejoin:miter;stroke-opacity:1"
       d="m 124.88221,144.33768 c -0.17319,0.0945 -0.14177,0.7087 -0.18899,1.13392 -0.0472,0.42523 -0.0472,1.41743 0.0945,1.6064 0.14173,0.189 1.45184,0.58914 1.98438,1.13393 0.30049,0.30739 0.61421,0.66146 0.61421,1.13393 0,0.47247 0.18898,1.74813 0.0472,1.98438 -0.14176,0.23622 -0.66146,1.37016 -0.75596,1.70089 -0.0945,0.33073 -0.14174,1.27567 -0.14174,1.46466 0,0.18898 1.28002,1.00398 1.65365,1.70089 0.28169,0.52543 0.23622,1.03943 0.37797,1.74814 0.14174,0.7087 0.51972,1.98437 0.51972,2.4096 0,0.42522 0.018,1.08042 0.42522,1.22842 0.25893,0.0941 0.33074,0 0.70871,-0.42522 0.37798,-0.42523 0.44098,-1.05517 0.85045,-1.03944 0.40947,0.0157 0.81895,0.0315 1.22842,0.0472 0.40947,0.0157 1.08668,0.37796 1.41741,0.33073 0.33073,-0.0472 1.71664,-1.02368 2.03162,-1.37016 0.31498,-0.34648 0.6852,-0.64983 0.94494,-1.03944 0.46923,-0.70384 0.81895,-1.48041 1.22843,-2.22061 0.40948,-0.7402 -0.37798,-2.22061 -0.37798,-2.4096 0,-0.18899 0.67721,-0.61421 0.61421,-1.13393 -0.063,-0.51972 -0.12599,-1.03943 -0.18899,-1.55915 -0.063,-0.51972 0.56696,-0.47247 0.28348,-0.94494 -0.28348,-0.47247 -1.38316,-1.10417 -1.70089,-1.88988 -0.16542,-0.40907 -0.0473,-1.03943 -0.0473,-1.32292 0,-0.28348 0.23624,-0.61421 0,-0.75595 -0.23623,-0.14174 -1.62215,-0.99218 -2.03162,-1.22842 -0.40947,-0.23624 -1.05172,-0.27024 -1.22842,-0.70871 -0.30617,-0.75973 -0.0315,-1.63789 -0.0473,-2.45684 -0.0158,-0.81895 -0.51971,-0.47247 -1.03943,-0.47247 -0.51972,0 -2.36235,-0.0945 -2.83482,0.42522 -0.47247,0.51972 -1.13393,0.56697 -1.51191,0.8977 -0.37797,0.33072 -1.08668,0.66145 -1.27567,0.80319 -0.18899,0.14175 -0.96074,0.85043 -1.13393,0.94494 -0.17319,0.0945 -0.34638,0.18903 -0.51957,0.28354 z"
       id="path142"
       inkscape:connector-curvature="0"
       sodipodi:nodetypes="sssssssssssssssssssssssssssssssssss" />
    <path
       style="opacity:1;fill:#dc69c7;fill-opacity:1;fill-rule:evenodd;stroke:#000000;stroke-width:0.26458332px;stroke-linecap:butt;stroke-linejoin:miter;stroke-opacity:1"
       d="m 97.289895,69.876372 c 0.613525,0.210352 0.452497,1.2788 0.944938,1.700893 0.453757,0.388935 1.114354,0.452355 1.700895,0.566964 0.792092,0.154773 1.606432,0.157487 2.409652,0.236231 0.80322,0.07874 0.47252,0.850444 1.32291,0.425222 0.8504,-0.425225 1.32292,0.425226 1.79539,0.708708 0.47247,0.283481 1.12677,0.103862 1.5591,0.425222 0.47697,0.354547 0.80325,0.614212 0.94499,1.511904 0.14174,0.897694 0.85047,1.606398 0.8977,2.598586 0.0472,0.992187 -0.97853,1.695352 -0.61422,2.456847 0.50177,1.048809 2.97657,1.275672 3.16555,1.464657 0.18899,0.188991 1.13393,0.992187 1.51191,1.511905 0.37798,0.519716 0.18899,0.614212 1.03943,0.897692 0.85045,0.283483 1.49701,-0.6433 2.21471,-0.543344 0.84865,0.118193 2.12611,0.51972 2.45684,0.755955 0.33073,0.236234 2.22652,1.378039 2.41551,1.204799 0.18899,-0.17324 0.37797,-0.346479 0.56696,-0.519719 0.18899,-0.17324 0.66146,-0.566965 1.74814,-1.322916 1.08668,-0.755952 0.95675,-1.252045 1.24023,-1.299293 0.28348,-0.04725 1.4056,-0.02362 1.68909,-0.07087 0.28348,-0.04725 0.86813,-1.324766 1.55915,-1.606399 0.55439,-0.225949 1.32291,0.141743 1.79539,0.04725 0.47247,-0.09449 2.2521,-0.31498 3.07105,-0.755952 0.81895,-0.440972 1.53885,-1.173241 2.45685,-1.322916 0.65376,-0.106592 1.27601,0.365346 1.88988,0.614211 1.13665,0.460803 3.35454,1.511903 3.35454,1.511903 v 0 c 0,0 2.61433,2.204861 3.9215,3.307292 1.30717,1.102431 1.74816,1.795384 1.79539,2.078871 0.0472,0.283478 0.94494,1.700892 1.37016,1.984375 0.42522,0.283482 2.06312,0.09449 2.26786,0.377976 0.20474,0.283482 0.40947,0.566963 0.61421,0.850445 0.20474,0.283482 2.26785,1.937129 1.37016,2.740329 -0.89769,0.803199 -2.0808,2.062138 -1.70089,3.212796 0.12588,0.381278 1.18118,-0.472472 1.08668,0.519718 -0.0945,0.992187 0.23624,1.322919 0.75595,2.362351 0.51972,1.039436 -0.24066,1.619175 -0.0945,2.409595 0.17447,0.94353 0.89769,2.03163 1.13393,2.64584 0.23623,0.61421 0.47247,1.70089 0.75595,2.55133 0.28348,0.85045 0.47247,1.98438 0.47247,2.45685 0,0.47247 -1e-5,1.32292 -0.18899,1.88988 -0.18899,0.56697 -0.37797,1.46466 -0.61421,1.88988 -0.23623,0.42522 -1.08668,0.42522 -1.32292,0.61421 -0.23623,0.18899 -1.79538,1.84264 -2.03162,2.17337 -0.23623,0.33073 -2.48677,-0.50943 -3.2128,0.28348 -0.0638,0.0697 2.03163,-1.74814 0,0.28348 -2.03162,2.03162 -1.35239,2.69471 -2.50409,3.59077 -0.81034,0.63047 -2.69308,0.99219 -2.88207,1.08669 -0.18898,0.0945 -1.85838,0.50394 -2.26785,0.51971 -0.40947,0.0158 -0.94201,0.34036 -1.22842,0.0473 -0.52951,-0.54181 -0.53547,-1.41741 -0.80321,-2.12611 -0.26774,-0.7087 0.94494,-0.66145 0.0472,-1.18118 -0.8977,-0.51971 -2.44633,-0.48141 -3.54352,-1.03944 -0.23024,-0.1171 0,-0.42524 -0.61422,-0.47246 -0.61421,-0.0472 -1.98437,-0.33073 -2.50409,0 -0.51971,0.33072 -1.42373,0.83968 -2.12611,0.6142 -0.363,-0.11653 -0.56697,-0.51971 -0.70871,-0.89769 -0.14174,-0.37797 -0.56696,-1.08668 -1.13393,-1.08668 -0.56696,0 -2.3151,-0.18899 -2.59859,0.23624 -0.28348,0.42522 -0.80319,0.7087 -1.22842,1.08668 -0.42522,0.37797 -2.3151,0.8032 -2.64583,1.18117 -0.33073,0.37798 -2.11037,1.08669 -2.59859,1.03944 -0.48822,-0.0473 -1.07105,0.15094 -1.46466,-0.14174 -0.91431,-0.67987 -1.22074,-2.05227 -2.22061,-2.59859 -0.69158,-0.37787 -1.5749,0.063 -2.36235,0.0945 -0.78745,0.0315 -1.6064,0.0472 -2.88206,-0.14174 -1.27567,-0.18897 -2.26786,-0.56696 -2.97657,-0.75595 -0.7087,-0.18899 -1.47624,-0.54729 -2.22061,-0.8032 -0.7206,-0.24774 -1.70089,0.18904 -2.17336,-0.7087 -0.47247,-0.89775 -0.80321,-0.28349 -1.700896,-0.85045 -0.89769,-0.56696 -2.031615,-0.61421 -2.126112,-0.99219 -0.0945,-0.37797 -0.372515,-2.10219 -0.425225,-3.16555 -0.02263,-0.45643 0,-1.03943 0.04725,-1.37016 0.04725,-0.33073 -1e-6,-1.13393 -0.614212,-2.12612 -0.204737,-0.33073 -0.484133,-0.62561 -0.614211,-0.99219 -0.221071,-0.62301 -0.283482,-1.29139 -0.425223,-1.93709 -0.141741,-0.6457 -1.039438,-0.51975 -1.13393,-0.85048 -0.09449,-0.33073 -0.440973,-1.874148 -1.039434,-2.409599 -0.598461,-0.535451 -1.366578,-2.285316 -1.795383,-1.606354 -0.616838,0.976691 1.289575,2.43232 0.661456,3.401793 -0.51388,0.79315 -1.889882,-0.0315 -2.834823,-0.0473 -0.944941,-0.0158 -1.370163,0.33073 -1.559152,0.33073 -0.188987,0 -1.322915,0.44098 -2.220609,-0.37797 -0.897694,-0.818949 -1.614055,-3.01563 -2.693082,-2.45685 -1.132875,0.586666 0.842119,2.79508 0.401603,3.99238 -0.256512,0.69719 -1.573778,1.21384 -2.291482,1.40559 -1.392929,0.37216 -2.819072,-0.0748 -4.252232,0.0827 -1.43316,0.15749 -2.078869,-1.08668 -2.22061,-1.41741 -0.141741,-0.33073 -0.15622,-2.520856 -0.897695,-3.449034 -0.320936,-0.401747 -0.71461,0.342548 -1.706798,-0.318912 -0.992187,-0.661458 -1.962719,-1.444974 -1.978469,-1.854447 -0.01575,-0.409473 -0.04104,-0.818691 -0.04725,-1.22842 0.280104,-3.591961 -0.576598,-1.448573 -2.285513,-1.996247 -0.566944,-0.220486 -1.257954,-1.216611 -1.352447,-1.405601 -0.09449,-0.188986 -0.897694,-0.897692 -0.897694,-1.322917 0,-0.425222 0.472471,-1.464657 0.661459,-1.748139 0.188988,-0.283483 -0.141737,-0.330723 0.755954,-0.803198 0.897692,-0.472476 1.527654,-1.527655 1.653646,-1.795388 0.125992,-0.267733 0.111545,-0.674474 0.377975,-0.803199 1.206355,-0.582846 2.529215,-0.895655 3.827008,-1.228423 0.552578,-0.141687 1.186618,0.05786 1.700895,-0.188989 0.716265,-0.343807 1.425125,-0.835941 1.842632,-1.511904 0.298968,-0.484044 0.09449,-1.133928 0.141743,-1.700892 0.04725,-0.566964 -0.472472,-0.803201 -0.992188,-0.803201 -0.519718,0 -2.67938,-0.220949 -2.553388,-0.724917 0.125992,-0.503968 -0.02589,-1.285832 0.298631,-1.691476 0.361216,-0.451519 1.419487,-0.765296 1.971275,-0.938145 0.775845,-0.243036 1.612732,-0.216706 2.409597,-0.377976 0.527995,-0.106856 1.039435,-0.283481 1.559153,-0.425222 0.519718,-0.141741 0.61421,-1.086684 0.661458,-1.559153 0.04725,-0.472469 0.172875,-1.068895 0.236233,-1.606399 0.08329,-0.706608 0.141741,-1.653645 0.18899,-2.126116 0.04725,-0.47247 0.09449,-0.755952 0.09449,-1.086681 0,-0.330729 -0.554459,-1.991388 0.141743,-2.362351 0.548264,-0.292136 0.519766,0.236235 1.606399,0.94494 0.36221,0.236235 0.694274,0.890528 1.08663,0.708705 0.549725,-0.254751 0.566999,-1.070932 0.850498,-1.606398 0.283499,-0.535466 -0.28348,-0.51972 0.283483,-0.614212 0.566965,-0.09449 1.522068,-0.936291 2.173314,-0.56696 0.342487,0.194229 0.425271,0.944936 0.330779,1.133925 -0.09449,0.188987 -1.039433,1.133928 -1.086681,1.322916 -0.04725,0.188988 0.928289,1.448073 1.133878,2.267861 0.137967,0.550146 0.236286,0.850443 0.0473,1.700889 -0.188987,0.850447 -0.724505,2.362354 0.236185,2.456849 0.96069,0.09449 1.993301,0.660242 2.882069,0.283485 0.792352,-0.335885 0.913761,-1.464988 1.464707,-2.126123 0.477704,-0.573245 1.606349,-1.559147 1.606349,-1.559147 v 0 c 0,0 1.439824,-0.502398 2.173362,-0.708706 0.779565,-0.219253 1.596313,-0.829606 2.36235,-0.566964 z"
       id="path198"
       inkscape:connector-curvature="0"
       sodipodi:nodetypes="cssssssssssssssssssssssssssssssssssssssssssssssssssssssssssssssssssssssssssssssssssssssssssccsssssssssssssssssssssssssssssssssssssc" />
    <path
       style="fill:none;fill-opacity:1;fill-rule:evenodd;stroke:#000000;stroke-width:1;stroke-linecap:butt;stroke-linejoin:miter;stroke-miterlimit:4;stroke-dasharray:4.00000011, 2.00000006, 1.00000003, 2.00000006;stroke-dashoffset:0;stroke-opacity:1"
       d="m 150.11212,168.52815 c 0.0157,-0.62996 0.0315,-1.25992 0.0472,-1.88988 0.0157,-0.62996 -0.85042,-1.27568 -0.89769,-1.46466 -0.0473,-0.18899 0.86619,-0.14173 0.61421,-1.60639 -0.25198,-1.46466 0.14302,-3.21052 -0.75595,-4.39398 -0.60924,-0.80204 -1.98437,-0.34648 -2.97656,-0.51972 -0.99219,-0.17324 -1.18118,-0.0945 -1.32292,-0.33072 -0.14174,-0.23624 -0.14174,-3.26005 -0.14174,-3.44904 0,-0.18899 -1.48225,-3.34446 -2.12612,-5.05543 -0.26311,-0.69917 -0.51971,-1.22842 -0.7087,-2.12611 -0.18899,-0.8977 -0.8977,-2.74033 -0.8977,-3.40179 0,-0.66146 -0.18898,-2.17336 -0.18898,-2.88207 0,-0.7087 -0.18899,-2.3151 0,-2.78757 0.18898,-0.47247 0.99218,-2.97656 1.08668,-3.2128 0.0945,-0.23624 0.49592,-2.78876 1.32291,-3.87426 0.54268,-0.71231 1.84264,-1.37016 2.22061,-1.5119 0.37798,-0.14174 0.28432,-1.50532 0.33073,-2.26786 0.0412,-0.67614 -0.14172,-1.41741 -0.0472,-2.03162 0.0945,-0.61421 0.47247,-2.83482 0.66145,-3.44903 0.18899,-0.61421 0.56697,-2.64584 0.8032,-3.02381 0.23624,-0.37798 1.79539,-1.93713 1.93713,-2.31511 0.14174,-0.37797 0.23624,-1.65365 0.61421,-1.88988 0.37798,-0.23624 1.88988,-1.08668 2.22061,-1.46465 0.33073,-0.37798 1.46466,-1.88989 1.74814,-2.12612 0.28349,-0.23624 1.18118,-1.37017 1.18118,-1.79539 0,-0.42522 -1.46468,-4.67745 -1.51191,-5.5279 -0.0472,-0.85045 -0.28348,-1.88988 -0.28348,-2.12612 0,-0.23623 -1.22842,-0.72445 -1.22842,-1.08668 v -1.08668 c 0,-0.377975 -0.29923,-3.512028 -0.66146,-3.685267 -0.36223,-0.173239 -1.15188,-0.123524 -1.08668,-0.519718 0.19676,-1.195671 1.13393,-2.141864 1.70089,-3.212796 0.56696,-1.070932 -0.8032,-2.173364 -0.7087,-2.456847 0.0945,-0.283482 1.05518,-1.637895 0.47247,-1.511903 -0.58271,0.125992 -1.19366,0.597029 -1.74814,0.377976 -0.871,-0.344098 -1.38591,-1.259921 -2.07887,-1.889882 -0.69296,-0.629961 -2.07887,-2.078868 -2.26786,-2.409597 -0.18899,-0.33073 -0.7087,-0.75595 -0.94494,-1.039435 -0.23623,-0.28348 -1.85839,-2.3466 -2.4096,-2.36235 -0.55121,-0.01575 -1.12713,0.116665 -1.65364,-0.04725 -1.17106,-0.364577 -2.21789,-1.0511 -3.35454,-1.511903 -0.61387,-0.248865 -1.23154,-0.541062 -1.88988,-0.614211 -0.64481,-0.07164 -1.29142,0.125993 -1.93713,0.188989 -0.64571,0.063 -2.36235,0.897692 -2.59859,0.992187 -0.23623,0.09449 -1.89193,0.474168 -2.78757,0.850445 -0.72772,0.305733 -1.84264,1.13393 -2.07887,1.13393 -0.23624,0 -1.90311,0.376789 -2.69308,0.897692 -0.47497,0.313191 -1.0867,1.039429 -1.13393,1.27567 -0.0472,0.236231 -1.08668,1.41741 -1.32292,1.41741 -0.11469,0 -0.65085,-0.241602 -1.3028,-0.545935 -0.69087,-0.322497 -1.51177,-0.715436 -2.09898,-0.965969 -0.34432,-0.146905 -0.75595,-0.992189 -1.03944,-0.425222 -0.28348,0.56696 -0.99218,1.133927 -1.37016,0.897692 -0.37798,-0.236234 -2.69308,-1.228421 -2.88207,-1.41741 -0.18899,-0.18899 -1.22842,-2.55134 -1.84263,-2.598587 -0.61421,-0.04725 -1.22843,-0.09449 -1.84264,-0.14174 -0.61421,-0.04725 -0.42522,-2.126118 -0.42522,-2.645833 0,-0.519719 -0.75595,-2.220611 -0.75595,-2.598587 0,-0.377976 0.7874,-0.8032 -0.0473,-1.322917 -0.8347,-0.519717 -1.56412,-1.270566 -2.50409,-1.559152 -0.91887,-0.28211 -1.92214,-0.04501 -2.88207,-0.09449 -0.56817,-0.02929 -1.14392,-0.02571 -1.700891,-0.141741 -0.585071,-0.12189 -1.247138,-0.178029 -1.700895,-0.566964 -0.492441,-0.422093 -0.331414,-1.490541 -0.944939,-1.700893 -0.766038,-0.262642 -1.582787,0.347711 -2.362353,0.566964 -0.733538,0.206308 -1.448908,0.472471 -2.173362,0.708706 -0.724454,0.236235 -0.188989,1.322917 -0.188989,1.511904 0,0.18899 -0.551214,0.724453 -1.133927,1.086681 -0.582713,0.362228 -1.072113,0.969414 -1.748139,1.086684 -0.951122,0.164991 -1.94036,-0.07127 -2.88207,-0.283483 -0.217276,-0.04896 -0.45732,-0.250263 -0.472471,-0.472472 -0.08367,-1.227187 0.237665,-2.456194 0.188989,-3.685267 -0.01518,-0.383213 -0.251984,-0.724454 -0.377976,-1.086681 -0.125992,-0.362227 -0.377977,-0.944941 -0.330729,-1.370164 0.04725,-0.425223 0.790521,-1.657768 0.330729,-2.267857 -0.353901,-0.469584 -1.511906,-0.236235 -1.748139,-0.236235 -0.236236,0 -1.086683,0.614211 -1.086683,0.850447 0,0.236235 0.661457,2.047371 0.377975,2.078868 -0.283482,0.0315 -0.566963,0.06299 -0.850445,0.09449 -0.283482,0.0315 -1.606399,-1.41741 -1.795388,-1.559151 -0.188987,-0.141741 -1.113064,-1.183487 -1.842632,-1.181176 -0.751341,0.0024 -1.889882,1.039435 -1.889882,1.228423 0,0.188988 -0.377979,1.08668 -0.04725,1.748139 0.330729,0.661459 0.699459,1.305245 0.992188,1.984376 0.102812,0.238525 0.295894,0.519233 0.188989,0.755952 -0.15188,0.336306 -0.493896,0.613624 -0.850447,0.708705 -0.639305,0.170482 -1.322769,0.05452 -1.984375,0.04725 -0.772298,-0.0085 -1.554513,-0.228713 -2.315105,-0.09449 -0.366034,0.06459 -0.751278,0.319821 -0.897694,0.661458 -0.262401,0.612269 -0.216358,1.318543 -0.236233,1.984375 -0.01183,0.396373 0.461217,0.946259 0.14174,1.181176 -0.469444,0.345191 -1.27112,0.33472 -1.748086,0 -0.57652,-0.404583 -0.337198,-1.533917 -0.944941,-1.889881 -0.679613,-0.39806 -1.574983,-0.02781 -2.362351,-0.04725 -0.488325,-0.01206 -0.976439,-0.0315 -1.464659,-0.04725 -0.48822,-0.01575 -0.425221,-1.653646 -0.472469,-1.984375 -0.04725,-0.330729 -0.922379,-1.225495 -1.606399,-1.464657 -0.446985,-0.156285 -1.039435,0.09449 -1.417411,0.09449 -0.377976,0 -1.415334,-0.620305 -2.126116,-0.472471 -0.838886,0.174478 -2.078869,1.181176 -2.078869,1.511905 0,0.330729 -0.99219,1.606399 -1.086682,2.031622 -0.09449,0.425222 -0.708705,1.181177 -0.94494,1.322917 -0.236235,0.141739 -1.74814,0.330729 -1.74814,0.519718 0,0.188987 -1.322917,1.55915 -1.322917,1.748139 0,0.188987 -2.000125,0.01575 -2.031622,0.850445 -0.0315,0.834698 -0.06299,1.669395 -0.09449,2.504093 -0.0315,0.834698 1.133928,0.850448 1.133928,1.039434 0,0.18899 -0.771702,2.141865 -0.803199,2.645834 -0.0315,0.503969 -0.06299,1.007937 -0.09449,1.511906 -0.0315,0.503969 0.519717,1.41741 0.519717,1.700892 0,0.283483 0.111511,1.208281 0.47247,1.653646 0.190744,0.235347 0.425223,0.283481 0.803199,0.425222 0.377976,0.141742 1.720452,-0.181342 2.55134,0 0.406223,0.08866 1.228421,0.330729 1.133928,0.519719 -0.09449,0.188986 -1.322917,2.315104 -1.322917,2.50409 0,0.188988 -0.170892,0.486266 0,0.566965 0.517598,0.244422 1.192241,-0.02629 1.700893,0.236236 0.524575,0.270749 0.869558,0.806948 1.228423,1.27567 0.417101,0.544784 1.416028,1.14623 1.086682,1.748139 -0.411293,0.751672 -1.653001,0.459295 -2.456846,0.755952 -0.522165,0.192704 -1.007936,0.47247 -1.511904,0.708705 -0.503968,0.236235 0.188988,1.606399 0.188988,1.842635 0,0.07874 -0.05926,0.184382 0,0.236236 0.467078,0.40869 1.007936,0.72445 1.511904,1.08668 0.503968,0.36223 1.322917,1.18118 1.511905,1.46466 0.188988,0.28348 0.09449,1.08668 0.47247,1.37017 0.377975,0.28348 0.897695,0.75595 0.850447,1.22842 -0.04725,0.47247 -0.141741,1.29142 -0.283482,1.74814 -0.141741,0.45672 0.03577,1.24299 -0.425223,1.37016 -0.769651,0.21232 -1.520849,-0.53298 -2.315105,-0.61421 -0.61423,-0.0628 -1.288454,0.46122 -1.842634,0.18899 -0.518991,-0.25494 -0.330691,-1.25853 -0.850446,-1.51191 -0.883273,-0.4306 -1.949293,-0.40244 -2.929315,-0.33073 -0.374672,0.0274 -0.629961,0.40948 -0.944941,0.61422 -0.31498,0.20474 -0.09449,1.88988 -0.09449,2.26785 0,0.37798 -0.818948,1.90564 -0.236235,2.17337 0.582713,0.26773 1.125581,0.64939 1.74814,0.8032 0.73643,0.18194 1.511905,0.12599 2.267857,0.18898 2.137287,1.75975 -1.025556,3.60739 -1.653646,5.85863 -0.09449,0.33073 0,0.33073 0,0.61422 0,0.28348 -0.708704,2.12611 -0.755952,2.55133 -0.04725,0.42523 -0.8032,1.98438 -0.992188,2.26786 -0.188988,0.28348 -0.645705,2.06312 -1.322916,1.55915 -0.09831,-0.0732 -0.196627,-0.14633 -0.294941,-0.21949 -0.578897,-0.4308 -1.157795,-0.8616 -1.736692,-1.29241 -0.677211,-0.50397 -1.464659,-0.85045 -1.559152,-0.28348 -0.09449,0.56696 -0.283479,2.22061 -0.09449,2.78757 0.188991,0.56697 1.11818,2.77183 1.370164,3.54353 l 0.755952,2.3151 c 0.251984,0.7717 0.330729,-0.47247 0.377976,0.0472 0.04725,0.51971 0.09449,2.17336 0.09449,2.50409 0,0.33073 -0.0945,2.12612 -0.188988,2.3151 -0.09449,0.18899 -0.842136,1.26562 -1.27567,1.88989 -0.309109,0.44511 -0.897692,1.03943 -0.94494,1.32291 -0.04725,0.28348 -0.708708,1.37017 -0.944941,1.55915 -0.236237,0.18899 -1.5749,0.36223 -1.511904,0.8977 0.063,0.53547 0.125992,1.07093 0.188988,1.6064 0.063,0.53547 0.708705,0.89769 1.086681,0.89769 0.377976,0 1.527654,-0.97644 1.700893,-0.51972 0.173239,0.45672 0.346478,0.91345 0.519717,1.37017 0.173239,0.45672 1.700893,1.41741 2.078869,1.41741 0.377977,0 1.212673,0.14174 2.078869,0.28348 0.866196,0.14174 1.734227,0.27269 2.598587,0.42522 0.742184,0.13097 1.559799,0.0628 2.22061,0.42522 0.402597,0.22078 0.47247,0.78745 0.708705,1.18118 0.236235,0.39373 0.09449,1.6064 0.09449,2.03162 0,0.42523 0.48822,1.32292 0.897694,1.65365 l 1.228422,0.99219 c 0.409474,0.33073 1.889881,0.18899 2.22061,0.18899 0.330729,0 1.984375,0.37797 1.984375,0.80319 0,0.42523 1.039435,1.33867 1.039435,1.7009 0,0.36223 -0.04425,0.72717 0,1.08668 0.08225,0.66831 0.251984,1.32291 0.377976,1.98437 0.125992,0.66146 -0.425223,1.84264 -0.425223,2.17337 0,0.33073 -0.472469,1.13393 -0.04725,1.79538 0.425224,0.66146 1.228421,1.13393 1.275669,1.46466 0.04725,0.33073 -0.897696,0.56697 -0.992187,0.94494 -0.09449,0.37798 0.15521,1.58747 -0.236235,2.22061 -0.24582,0.3976 -1.086685,0.51972 -1.181176,0.75595 -0.09449,0.23624 -0.259313,1.23451 -0.425223,1.84264 -0.165183,0.60547 -0.425221,1.55915 -0.566964,1.79539 -0.141739,0.23623 -0.283482,2.59858 -0.283482,2.83482 0,0.23623 0.236235,3.40178 0.236235,3.68527 0,0.28348 -2.724581,1.66939 -0.04725,0.99218 2.677331,-0.67721 5.381072,-1.25746 8.031994,-2.03162 0.915205,-0.26727 1.763889,-0.72445 2.645833,-1.08668 0.881944,-0.36223 4.204987,-0.56697 4.819195,-0.66146 0.614213,-0.0945 4.67746,-1.32292 4.819198,-1.5119 0.141742,-0.18899 3.968748,-2.5041 4.346725,-2.69309 0.377974,-0.18898 2.897819,-1.68514 4.819198,-2.03162 1.921379,-0.34648 3.858259,-0.6159 5.764136,-1.03943 1.782586,-0.39613 3.527776,-0.94494 5.291666,-1.41741 1.76389,-0.47247 5.57515,-0.51972 6.47284,-0.51972 0.8977,0 4.39398,0.23624 4.72471,0.23624 0.33072,0 4.44121,-1.22843 4.96093,-1.37017 0.69296,-0.18899 1.38591,-0.37797 2.07887,-0.56696 0.69296,-0.18899 5.43341,0.18901 5.81139,0.23623 0.37797,0.0472 1.32291,0.0945 2.03162,0.0472 0.7087,-0.0472 2.9041,0.4367 4.34672,0.7087 1.32952,0.25068 3.54353,0.80323 3.96875,0.85045 0.42523,0.0472 2.26786,-0.0945 3.07106,-0.0945 0.8032,0 3.87426,0.33073 4.11049,0.33073 0.23624,0 3.1183,-0.14174 3.30729,-0.14174 0.18899,0 1.88988,0.51971 2.07887,0.66145 0.18899,0.14174 1.03944,0.33069 1.03944,0.33073 0,4e-5 1e-5,1.5e-4 1e-5,1.1e-4 z"
       id="path140"
       inkscape:connector-curvature="0"
       sodipodi:nodetypes="sssssssssssssssssssssssssssssssssssssssssssssssssssssssssssssssssssssssssssssssssssssssssssssssssssssssssssssssssssssssssssssssssssssssssccsssssssssssssssssssssssssssssssssssssssssssssssssssssssssssssssssss" />
    <path
       style="opacity:1;vector-effect:none;fill:#dbfaeb;fill-opacity:1;fill-rule:evenodd;stroke:#000000;stroke-width:0.26458332px;stroke-linecap:butt;stroke-linejoin:miter;stroke-miterlimit:4;stroke-dasharray:none;stroke-dashoffset:0;stroke-opacity:1"
       d="m 91.087072,168.97399 c 0.203162,-0.48357 0.680761,-0.82065 1.123818,-1.10139 0.258858,-0.16402 0.55782,-0.28387 0.862258,-0.31892 0.360711,-0.0415 1.051246,0.13584 1.080776,0.13584 1.79829,-0.20002 1.981393,-0.46076 1.228423,1.2934 -0.05658,0.13863 -0.09677,0.30083 -0.212614,0.39569 -0.70829,0.58 -1.728188,0.96525 -2.628114,0.7973 -0.270211,-0.0504 -0.477128,-0.29391 -0.649647,-0.50791 -0.07958,-0.0987 -0.100388,-0.2953 -0.165365,-0.34254 -0.06495,-0.0472 -0.515695,-0.1421 -0.639535,-0.35146 -2e-6,0 -1e-6,-1e-5 0,-1e-5 z"
       id="path1243"
       inkscape:connector-curvature="0"
       sodipodi:nodetypes="sssccssssss" />
    <path
       style="opacity:1;vector-effect:none;fill:#dbfaeb;fill-opacity:1;fill-rule:evenodd;stroke:#000000;stroke-width:0.26458332px;stroke-linecap:butt;stroke-linejoin:miter;stroke-miterlimit:4;stroke-dasharray:none;stroke-dashoffset:0;stroke-opacity:1"
       d="m 87.38706,171.4379 c -0.05643,0.016 -0.469562,-1.35612 -0.10858,-1.86253 0.283689,-0.39798 0.931615,-0.30423 1.411518,-0.39673 0.474274,-0.0914 1.006308,-0.36559 1.440751,-0.15452 0.158071,0.0768 0.109784,0.40235 0.279797,0.44685 0.219358,0.0574 0.370825,-0.3124 0.59718,-0.32574 0.227596,-0.0134 0.44678,0.12574 0.634765,0.25474 0.100639,0.0691 0.192403,0.16014 0.249481,0.26803 0.09468,0.17896 0.241531,0.42026 0.134718,0.59225 -0.572497,0.92184 -2.115648,0.48544 -3.165473,0.76005 -0.494097,0.12925 -1.474157,0.4176 -1.474157,0.4176 z"
       id="path1250"
       inkscape:connector-curvature="0"
       sodipodi:nodetypes="sssssssssss" />
    <path
       style="opacity:1;vector-effect:none;fill:#dbfaeb;fill-opacity:1;fill-rule:evenodd;stroke:#000000;stroke-width:0.26458332px;stroke-linecap:butt;stroke-linejoin:miter;stroke-miterlimit:4;stroke-dasharray:none;stroke-dashoffset:0;stroke-opacity:1"
       d="m 79.147641,173.9185 c 0,0 0.631964,-0.83807 1.060725,-1.12337 0.19071,-0.1269 0.42078,-0.18707 0.643118,-0.24221 0.516159,-0.128 1.561856,-0.20045 1.582737,-0.20045 0.02088,0 0.540535,-0.22973 0.826865,-0.28398 0.250527,-0.0475 0.514265,-0.0838 0.764223,-0.0334 0.137344,0.0277 0.342445,0.1378 0.380023,0.17958 0.0376,0.0418 0.451185,0.4124 0.655646,0.63894 0.06307,0.0699 0.193611,0.12897 0.175397,0.22133 -0.06331,0.32102 -0.568337,0.32451 -0.856099,0.48025 -0.635191,0.34376 -1.31977,0.60206 -1.920999,1.00226 -0.143174,0.0953 -0.37167,0.31321 -0.396727,0.32991 -0.02506,0.0167 -0.405124,0.12083 -0.605533,0.18792 -0.249691,0.0836 -0.722476,0.24221 -0.743344,0.26727 -0.02089,0.0251 -0.253395,0.23952 -0.380024,0.17957 -0.06743,-0.0319 -0.04592,-0.19628 -0.05429,-0.21715 -1.794755,-0.58348 -1.064434,-0.37377 -1.300032,-1.51934 z"
       id="path1257"
       inkscape:connector-curvature="0"
       sodipodi:nodetypes="sssssssssssssssccs" />
  </g>
</svg>
